<svg xmlns="http://www.w3.org/2000/svg" xmlns:xlink="http://www.w3.org/1999/xlink" width="345" height="162" viewBox="0 0 345 162">
  <defs>
    <clipPath id="clip-path">
      <rect id="Rectangle_1201" data-name="Rectangle 1201" width="345" height="162" transform="translate(768 865)" fill="#fff" stroke="#707070" stroke-width="1"/>
    </clipPath>
    <clipPath id="clip-path-2">
      <rect id="Rectangle_823" data-name="Rectangle 823" width="303.69" height="143.331" fill="none"/>
    </clipPath>
  </defs>
  <g id="Mask_Group_2" data-name="Mask Group 2" transform="translate(-768 -865)" clip-path="url(#clip-path)">
    <g id="舒芙蕾logo" transform="translate(789.31 874.335)">
      <g id="Group_2078" data-name="Group 2078" clip-path="url(#clip-path-2)">
        <path id="Path_337" data-name="Path 337" d="M207.8.274c-.175,0-.347-.121-.519-.107s-.322.172-.491.2-.38-.139-.546-.1-.338.1-.5.154-.345.086-.5.155-.274.237-.425.32-.333.12-.478.214-.33.146-.465.252-.261.24-.388.358-.25.25-.366.377-.22.275-.327.411-.114.345-.208.489-.322.213-.4.366,0,.388-.066.547-.173.3-.229.463-.013.35-.055.519-.109.32-.137.492-.281.315-.295.489-.007.356-.007.531.058.354.071.526.067.347.1.517.188.314.23.481-.054.378,0,.541.142.323.211.48.224.278.3.43.163.3.257.448.152.318.258.454.254.239.372.366.185.307.313.424.371.094.507.2.185.331.33.426.258.256.41.339.366.051.524.121.31.162.474.218.371-.05.54-.007.288.306.459.334.359-.057.533-.043.344.022.519.022.345-.077.515-.071.337.129.507.141.336.067.506.084.339.025.509.048.358-.078.526-.049.3.259.465.294.345.009.51.05.337.056.5.1.336.068.5.119.368-.015.528.042.3.184.457.248.308.153.463.222.277.213.431.288.3.157.452.237.4-.007.543.078.239.27.384.36.251.239.393.335.363.078.5.179.139.38.273.486.288.182.417.293.277.2.4.313.292.188.413.308.323.167.439.291.253.239.364.368.176.3.283.437.068.377.169.515.348.172.443.314.058.369.148.514.315.211.4.36.193.288.271.441-.04.4.03.554.278.251.343.409.127.319.184.48-.038.371.013.534.288.273.332.438-.03.36.007.527-.005.346.024.515.28.3.3.473-.023.35-.008.521-.018.345-.01.516-.061.342-.061.514c0,.256.073.256.073.512s-.007.256-.007.512.016.256.016.512.058.256.058.512-.08.256-.08.512-.154.256-.154.512.276.256.276.512-.1.256-.1.512-.061.256-.061.512.115.256.115.512-.038.256-.038.512-.187.256-.187.512.035.256.035.512.187.256.187.512-.128.256-.128.512-.106.257-.106.513.165.256.165.513-.021.256-.021.513-.062.257-.062.514-.036.257-.036.514-.023.257-.023.514.224.257.224.514-.068.257-.068.514-.076.257-.076.514.116.256.116.513-.141.256-.141.513-.067.256-.067.513.207.256.207.512.041.256.041.513.03.256.03.512-.065.256-.065.512.052.257.052.513-.154.256-.154.513-.013.256-.013.512.044.257.044.514.05.256.05.513.047.257.047.514-.187.257-.187.514.038.257.038.514.013.257.013.514.153.257.153.514-.183.257-.183.514.057.257.057.514.145.256.145.513-.056.257-.056.514.017.256.017.513-.034.256-.034.513-.136.257-.136.514.093.257.093.514-.148.257-.148.514.082.257.082.514.153.257.153.515-.047.257-.047.514.034.256.034.513-.116.257-.116.513-.121.256-.121.512.067.256.067.512-.008.256-.008.512.138.256.138.511.074.256.074.512-.044.256-.044.511-.179.256-.179.511.2.256.2.511.008.256.008.512-.068.256-.068.512-.147.257-.147.513.176.256.176.513-.069.257-.069.514-.051.257-.051.515.132.257.132.515,0,.257,0,.515-.233.257-.233.514.276.257.276.513-.157.257-.157.514-.026.256-.026.513.186.256.186.513-.267.257-.267.514.2.257.2.514-.084.257-.084.515.115.258.115.516-.079.257-.079.515-.045.257-.045.514.068.257.068.514-.085.257-.085.514-.032.257-.032.515.065.258.065.515-.089.258-.089.516.013.258.013.515.227.257.227.515-.051.257-.051.515-.178.258-.178.516-.045.258-.045.516.048.257.048.515.11.257.11.514.033.259.033.517-.182.257-.182.514.177.257.177.514-.044.257-.044.514-.119.259-.119.517.154.258.154.516.07.258.07.515-.262.259-.262.518.059.259.059.517-.033.258-.033.517.068.257.068.515.048.259.048.518-.067.26-.067.519.114.26.114.52-.088.26-.088.521c0,.174-.078.358-.064.529s.239.323.268.492-.113.379-.071.546.313.268.369.431.067.337.136.494.106.329.188.48.221.265.316.41.186.283.293.419.041.423.157.55.372.125.5.242.243.245.38.351.213.3.358.4.346.1.5.187.348.065.506.135.239.342.4.4.353.056.521.1.341.086.513.114.365-.153.538-.139.334.1.509.1.338-.09.509-.1.359.106.529.078.315-.171.482-.213.4.125.564.069.251-.317.409-.386.4.033.556-.049.285-.217.428-.311.279-.214.416-.32.165-.337.293-.454.388-.1.505-.228.141-.338.248-.475.276-.23.371-.374.145-.32.227-.472.165-.305.235-.464.074-.341.131-.505.028-.345.071-.514.322-.285.35-.457-.157-.369-.143-.543-.051-.338-.051-.512c0-.256,0-.256,0-.512s.036-.256.036-.512.1-.256.1-.512.084-.256.084-.512-.147-.256-.147-.512.2-.256.2-.512-.009-.256-.009-.512-.227-.256-.227-.512.11-.256.11-.512.029-.256.029-.512.106-.256.106-.512-.225-.256-.225-.512.042-.256.042-.512-.024-.256-.024-.512.156-.256.156-.512.044-.256.044-.512-.071-.257-.071-.513-.136-.257-.136-.514.216-.257.216-.513-.081-.257-.081-.514-.048-.257-.048-.514.074-.257.074-.514-.1-.257-.1-.514-.065-.257-.065-.513v-.514c0-.256.035-.256.035-.512s.151-.257.151-.513-.194-.256-.194-.513.014-.256.014-.512.105-.256.105-.512-.021-.257-.021-.513-.1-.256-.1-.512.129-.257.129-.513-.077-.256-.077-.513.146-.257.146-.513-.116-.257-.116-.514-.1-.257-.1-.514.216-.257.216-.514.017-.257.017-.514-.023-.257-.023-.514-.149-.257-.149-.514-.066-.257-.066-.514.259-.256.259-.513-.18-.257-.18-.514.007-.256.007-.513-.033-.257-.033-.513-.011-.257-.011-.514.01-.256.01-.513-.026-.257-.026-.514.13-.257.13-.514-.179-.257-.179-.514.07-.257.07-.514.007-.257.007-.514.078-.257.078-.514.07-.256.07-.513-.185-.256-.185-.512.025-.256.025-.512-.065-.256-.065-.512.073-.256.073-.511-.057-.256-.057-.511.036-.256.036-.511.082-.256.082-.511.011-.256.011-.512.031-.256.031-.511.087-.256.087-.512-.188-.256-.188-.512-.012-.257-.012-.514.075-.257.075-.514-.125-.257-.125-.515.078-.258.078-.515.179-.257.179-.514-.179-.257-.179-.514.077-.257.077-.514.042-.257.042-.513-.185-.257-.185-.513.191-.257.191-.514-.2-.257-.2-.514.2-.257.2-.514.038-.257.038-.515-.135-.258-.135-.516.061-.257.061-.515-.013-.257-.013-.515-.073-.257-.073-.514.067-.257.067-.514.1-.257.1-.515-.061-.257-.061-.515-.208-.258-.208-.516.061-.257.061-.515.13-.258.13-.515-.1-.257-.1-.515.131-.258.131-.516.018-.258.018-.516-.239-.258-.239-.515.05-.257.05-.515.072-.258.072-.516.1-.257.1-.515-.181-.257-.181-.514.182-.257.182-.515.027-.259.027-.517.032-.258.032-.516-.035-.258-.035-.516.047-.259.047-.517-.042-.259-.042-.517-.143-.258-.143-.516.1-.258.1-.515-.14-.259-.14-.519.132-.259.132-.519-.028-.26-.028-.52.051-.26.051-.52c0-.173-.2-.342-.2-.513s-.029-.341-.036-.512,0-.342-.007-.514.054-.347.039-.518.06-.351.042-.522-.217-.32-.239-.491.171-.37.145-.54,0-.351-.026-.52-.269-.3-.3-.47.079-.367.044-.535-.037-.346-.076-.513-.2-.3-.248-.471-.173-.308-.219-.474-.133-.316-.184-.48-.061-.339-.114-.5-.058-.342-.115-.5-.19-.295-.25-.456.1-.408.038-.568-.2-.292-.266-.45-.078-.343-.148-.5-.107-.332-.181-.487-.2-.287-.277-.441-.351-.205-.432-.357.062-.424-.02-.574-.328-.21-.414-.359-.234-.258-.324-.405-.113-.331-.206-.476-.159-.305-.254-.448-.071-.368-.17-.509-.419-.124-.52-.262-.12-.337-.224-.474-.171-.3-.277-.436-.154-.317-.263-.451-.231-.256-.342-.386-.21-.274-.325-.4-.379-.119-.5-.245-.072-.4-.191-.528-.326-.162-.448-.283-.276-.208-.4-.327-.31-.17-.436-.286-.19-.3-.319-.413-.257-.225-.388-.337-.228-.262-.361-.371-.322-.145-.457-.251-.276-.2-.413-.305-.282-.191-.42-.292-.239-.254-.38-.353-.2-.322-.339-.417-.319-.143-.463-.236-.358-.074-.5-.164-.3-.17-.445-.257-.179-.378-.329-.462-.328-.121-.479-.2-.345-.084-.5-.162-.315-.137-.469-.212-.264-.246-.42-.318-.3-.168-.46-.237-.336-.09-.5-.157-.355-.038-.515-.1-.264-.273-.425-.333-.365,0-.527-.062-.313-.146-.477-.2-.313-.15-.478-.2-.362.013-.528-.035-.349-.021-.515-.065-.3-.194-.469-.235-.322-.133-.489-.171-.316-.169-.484-.2-.357.026-.526-.005-.326-.136-.5-.165-.346-.019-.517-.045-.358.075-.529.053S211.075.219,210.9.2s-.353.064-.524.048-.354.119-.525.106-.331-.2-.5-.207-.348.1-.52.09S208.495,0,208.322,0s-.346.274-.518.274" transform="translate(-79.404 0)" fill="#7f4112"/>
        <path id="Path_338" data-name="Path 338" d="M205.337,52.679c-.263,0-.263.037-.526.037s-.263.128-.527.128-.265-.113-.529-.113-.264.144-.528.144-.264.015-.528.015-.265-.17-.53-.17-.265.024-.529.024-.265-.12-.529-.12-.264.013-.528.013-.265.055-.53.055-.266.191-.532.191-.267-.208-.533-.208-.254.075-.509,0c0-.163.045-.25.047-.414s.054-.326.055-.491.033-.327.034-.492-.165-.328-.165-.493.028-.326.029-.491.029-.328.03-.493.107-.329.106-.494-.108-.328-.108-.494-.038-.327-.038-.494c.247-.079.259.071.518.071s.26-.146.521-.146.262-.01.523-.01.261.128.522.128.261-.062.522-.062.262-.042.524-.042.261-.067.523-.067.261.168.523.168.26-.036.522-.036.262-.108.525-.108.262.219.525.219.263-.191.526-.191.263.1.526.1c.174,0,.34-.123.511-.137s.356.076.525.048.371.048.537.007.319-.171.481-.227.308-.17.465-.239.374-.036.525-.118.156-.411.3-.505.417-.005.553-.111.125-.382.253-.5.344-.136.461-.263.323-.185.429-.322.213-.283.308-.428-.021-.414.062-.566.323-.223.393-.382.1-.336.156-.5.193-.31.235-.477-.076-.371-.048-.543.012-.341.025-.514.022-.337.022-.512c0-.3-.065-.3-.065-.608s.219-.3.219-.608c0-.174-.112-.346-.126-.516s.074-.362.046-.531-.114-.336-.157-.5-.09-.338-.146-.5-.033-.366-.1-.524-.32-.231-.4-.383-.219-.263-.313-.408-.083-.361-.188-.5-.211-.277-.328-.4-.25-.241-.377-.358-.262-.227-.4-.333-.357-.087-.5-.182-.278-.187-.43-.269-.276-.2-.434-.273-.246-.328-.409-.384-.365-.01-.533-.052-.324-.168-.495-.2-.352-.046-.526-.061-.354.1-.528.1c-.25,0-.25.071-.5.071s-.25.01-.5.01-.251-.019-.5-.019-.252.079-.5.079-.251-.074-.5-.074-.251-.13-.5-.13-.252.219-.5.219-.252-.232-.5-.232-.251.23-.5.23-.251-.109-.5-.109-.252-.1-.5-.1-.253-.058-.506-.058-.253.111-.506.111-.29.162-.529.08c-.005-.175.012-.416.007-.592s.076-.355.071-.531-.181-.347-.186-.524-.034-.351-.04-.529.088-.356.082-.534-.02-.353-.027-.531.077-.357.071-.534.053-.356.047-.532-.2-.346-.208-.524-.081-.352-.087-.53.15-.36.143-.538-.169-.35-.176-.528.082-.362.075-.542-.025-.346-.046-.516-.15-.322-.185-.489.084-.376.035-.541-.251-.277-.314-.437-.1-.329-.172-.483,0-.395-.091-.543-.167-.318-.267-.458-.277-.233-.389-.364-.263-.232-.385-.354-.331-.145-.463-.257-.2-.3-.339-.4-.264-.231-.413-.319-.369-.041-.524-.117-.277-.211-.439-.275-.348-.031-.514-.081-.32-.1-.49-.136-.321-.129-.493-.151-.334-.131-.508-.139-.351-.06-.525-.054-.347.093-.517.113-.343.066-.511.1-.333.1-.5.147-.357.035-.518.1-.331.122-.486.2-.228.306-.376.394-.27.205-.41.306-.425.018-.557.13-.114.388-.237.51-.3.192-.408.324-.116.34-.216.481-.291.216-.379.364-.113.326-.19.482-.132.311-.2.472-.171.3-.221.466-.156.316-.191.486-.111.336-.133.508.07.354.062.528.042.34.049.515-.153.349-.146.52.078.34.084.51.021.342.027.512-.071.346-.065.516.016.342.023.512.035.342.041.512.116.339.122.509.1.339.1.509-.173.349-.167.519.036.342.042.512.085.34.091.51-.122.347-.117.517-.021.343-.016.513.2.337.21.507.1.34.1.51-.25.35-.246.52,0,.345,0,.516.1.342.1.513.194.339.2.511-.17.348-.166.52.187.34.191.511.013.344.017.515-.033.345-.03.516-.055.345-.051.516-.154.347-.151.519.248.339.251.51-.013.344-.01.515-.069.345-.066.516-.141.346-.139.517.254.34.257.511-.2.346-.194.517-.057.345-.055.515.262.341.263.511-.077.345-.075.515.057.343.059.514.012.343.013.514-.007.343-.006.514-.225.345-.225.515.167.343.167.513-.156.344-.156.514.013.343.013.513.176.343.177.514.055.343.055.514-.1.343-.1.513.067.343.066.514-.006.343-.007.513-.189.342-.19.512.228.345.227.514-.059.343-.061.512-.051.342-.053.512-.035.342-.038.512-.11.342-.112.511.042.343.039.512.186.346.183.515-.068.342-.071.511-.177.339-.181.508.044.343.039.512.051.344.047.513.028.343.024.512-.147.338-.151.508.094.345.089.514-.124.339-.129.508.063.344.058.513-.015.342-.022.511.035.343.028.512.045.344.039.513-.093.338-.1.506,0,.342,0,.511-.116.336-.124.5.186.351.177.52-.1.337-.112.505-.059.339-.069.506.065.346.055.514-.2.33-.207.5.114.349.1.517,0,.346-.008.515-.191.331-.2.5.168.357.156.526.028.347.015.515-.242.325-.256.493.064.35.049.517.015.346,0,.514-.034.341-.05.508.041.349.024.515-.032.342-.049.508-.03.342-.048.508-.162.326-.181.492-.177.323-.2.488.16.364.139.529-.179.322-.2.487-.076.336-.1.5-.065.337-.09.5.2.378.175.542-.108.332-.135.495-.248.307-.276.47.176.38.146.542-.271.3-.3.46.03.359,0,.519-.153.32-.188.48-.1.33-.142.486c-.042.173-.035.348-.075.5-.046.175-.094.336-.138.489-.05.175.006.368-.041.516-.057.179-.3.273-.353.415-.066.184-.1.3-.159.429-.135.1-.068.4-.194.515s-.288.176-.405.3-.4.1-.509.233-.2.29-.293.429-.1.345-.183.492-.054.35-.126.5-.286.245-.345.405-.024.349-.071.513-.045.333-.078.5-.255.305-.274.475-.041.347-.046.518.032.357.041.529.031.354.055.524.107.339.144.507-.005.368.045.532.341.248.405.407-.041.4.037.551.278.244.368.391.2.276.3.415.078.381.191.512.307.192.43.313.219.276.351.387.382.064.523.164.138.425.287.512.342.11.5.185.323.136.485.2.334.1.5.15.357-.017.528.017.342-.008.515.011.331.076.505.081c.061,0,.124-.045.191-.045.16,0,.325,0,.515-.018.165-.014.34.036.525.007.165-.027.349,0,.528-.039s.338-.078.512-.134.272-.248.44-.316.412.075.575-.005.218-.327.374-.419.395-.028.544-.13.186-.335.328-.447.251-.235.386-.356.407-.08.535-.208c.111-.113.236-.233.365-.369.109-.116.15-.315.269-.457.1-.123.25-.231.36-.378.1-.13.1-.337.2-.488.091-.136.22-.255.314-.411.085-.14.09-.333.176-.491s.286-.229.366-.389.21-.277.284-.439.018-.362.088-.526.277-.254.342-.42-.008-.367.052-.534.2-.289.261-.457.027-.35.081-.518.046-.341.1-.51.274-.276.322-.445-.027-.362.019-.532-.009-.354.034-.525.071-.333.113-.5.141-.317.18-.488.24-.3.277-.466.078-.334.113-.5-.194-.388-.16-.559.05-.337.082-.509.08-.332.111-.5.227-.308.257-.48.077-.335.105-.508.118-.329.145-.5-.049-.355-.023-.528-.123-.365-.1-.538.153-.325.177-.5.149-.326.172-.5.042-.342.064-.515.095-.336.116-.509-.079-.354-.059-.526.012-.343.031-.515.074-.337.092-.509-.066-.352-.048-.525.116-.333.134-.507-.055-.351-.039-.525.079-.339.1-.512.059-.341.075-.515-.009-.345.005-.517.057-.34.071-.514.076-.34.09-.514.042-.343.055-.519-.025-.346-.013-.52.128-.338.141-.513-.13-.355-.118-.529.036-.362.047-.539c.036,0,.135,0,.171,0,.257,0,.257.166.513.166s.256-.074.512-.074.256.056.513.056.257-.062.515-.062.257-.065.514-.065.257.116.514.116.258-.068.516-.068.257-.169.515-.169.257.035.515.035.257.038.514.038.258.039.517.039.259-.033.517-.033.259.026.518.026.26.12.519.12c.174,0,.345-.13.515-.144s.348,0,.517-.031.362.021.529-.021.317-.163.48-.219.342-.083.5-.152.239-.294.39-.376.408.008.552-.086.211-.3.347-.409.319-.159.445-.276.147-.339.263-.466.292-.2.4-.335.19-.287.285-.431.136-.315.219-.467.309-.233.378-.391.062-.35.117-.514.155-.316.2-.485-.087-.368-.059-.538.23-.317.245-.491-.089-.349-.089-.524c0-.3-.081-.3-.081-.608s-.017-.3-.017-.608c0-.174.189-.353.175-.523s-.061-.346-.09-.515-.075-.342-.117-.508-.17-.31-.226-.472.059-.4-.01-.555-.354-.214-.437-.365-.028-.385-.122-.529-.32-.2-.426-.331-.054-.41-.171-.537-.3-.2-.428-.315-.265-.228-.4-.334-.281-.208-.425-.3-.34-.1-.492-.187-.31-.143-.468-.213-.3-.161-.468-.217-.29-.247-.459-.29-.35-.051-.521-.08-.363.124-.536.11-.337-.164-.511-.164" transform="translate(-71.151 -8.5)" fill="#7f4112"/>
        <path id="Path_339" data-name="Path 339" d="M301.86,77.383a1.216,1.216,0,0,1-.425-.3c-.1-.1-.19-.25-.322-.395-.1-.114-.173-.282-.3-.419-.107-.118-.327-.148-.448-.282s-.1-.362-.216-.494-.372-.114-.491-.245-.148-.319-.265-.449-.128-.336-.245-.466-.346-.141-.462-.271-.072-.385-.187-.514-.246-.233-.361-.362-.35-.142-.466-.272-.222-.254-.336-.383-.233-.25-.348-.38-.318-.284-.432-.414c.084-.151.224-.364.306-.515s.119-.326.2-.479.422-.169.5-.322.072-.353.15-.507.068-.351.145-.506.116-.326.19-.483.158-.305.231-.462.2-.286.273-.443.087-.339.157-.5.13-.319.2-.477.213-.284.28-.443.067-.345.131-.505.188-.3.251-.457.073-.342.135-.5.278-.264.339-.426,0-.367.063-.529.082-.337.139-.5.185-.3.241-.464.107-.328.162-.492.208-.3.261-.46.1-.331.153-.5-.117-.4-.067-.563.322-.265.371-.431-.016-.364.031-.531.117-.326.163-.493-.062-.374-.018-.542.251-.291.294-.459-.081-.377-.039-.546.1-.333.139-.5.32-.284.354-.454-.093-.371-.063-.542.039-.343.064-.514.249-.318.268-.49-.061-.357-.047-.529.016-.348.025-.52.1-.345.1-.518.036-.35.035-.523-.165-.345-.171-.517-.148-.337-.159-.509.227-.366.211-.538-.255-.32-.277-.491.046-.354.019-.525-.158-.322-.191-.491-.014-.348-.052-.517.076-.374.034-.542-.113-.33-.161-.5-.272-.278-.325-.443-.016-.357-.073-.521-.055-.349-.118-.51-.1-.334-.171-.493-.134-.321-.207-.479-.145-.317-.222-.472-.148-.316-.23-.469-.254-.256-.34-.406-.078-.358-.168-.506-.242-.259-.337-.4-.348-.18-.447-.322-.144-.319-.248-.458-.141-.326-.248-.463-.211-.264-.32-.393-.281-.2-.393-.329-.1-.365-.218-.488-.193-.289-.312-.409-.425-.05-.548-.167-.155-.329-.281-.442-.222-.263-.351-.371-.255-.226-.388-.331-.239-.248-.374-.35-.337-.115-.475-.213-.32-.13-.462-.222-.192-.328-.336-.417-.372-.037-.519-.121-.316-.124-.465-.2-.306-.136-.457-.212-.282-.188-.435-.259-.284-.188-.44-.255-.323-.1-.48-.162-.286-.2-.445-.254-.285-.218-.445-.271-.4.139-.56.09-.323-.085-.486-.129-.27-.313-.434-.351-.38.159-.546.125-.287-.3-.453-.331-.373.2-.54.175-.3-.337-.465-.357-.356.144-.524.13-.326-.2-.495-.206-.349.253-.518.248-.334-.181-.5-.181-.335.147-.5.153-.35-.2-.519-.193-.336.077-.5.094-.344,0-.512.022-.317.177-.483.206-.337.035-.5.069-.308.166-.473.205-.364-.06-.528-.015-.284.232-.446.282-.32.1-.48.155-.382-.058-.54,0-.245.295-.4.361-.382-.027-.535.044-.291.181-.442.257-.317.127-.466.208-.186.356-.333.442-.4-.015-.547.075-.276.2-.416.3-.189.319-.326.418-.336.124-.469.227c0-.17.032-.346.027-.516s-.027-.34-.032-.509.035-.341.03-.511,0-.34,0-.51.058-.342.052-.512-.191-.334-.2-.5.118-.345.113-.514-.193-.333-.2-.5.2-.348.194-.517-.067-.338-.073-.507-.1-.337-.105-.506-.147-.334-.154-.5.168-.346.161-.516-.06-.338-.067-.507.1-.345.094-.514-.145-.334-.153-.5.164-.347.157-.517-.114-.335-.121-.5.046-.343.038-.512-.039-.339-.047-.508-.2-.331-.21-.5.162-.348.154-.517-.051-.337-.059-.506.045-.342.037-.511-.082-.336-.091-.5-.027-.339-.036-.507.077-.344.068-.512-.041-.338-.05-.506-.009-.339-.018-.508-.091-.335-.1-.5.024-.341.015-.509-.116-.336-.126-.5,0-.342-.009-.511-.141-.333-.151-.5.1-.346.088-.515-.093-.335-.1-.5.082-.345.071-.513-.117-.333-.128-.5.159-.35.148-.517-.222-.325-.233-.492.207-.353.2-.519-.166-.328-.177-.494.051-.345.04-.512-.231-.325-.242-.491.11-.346.1-.512-.1-.331-.114-.5-.022-.338-.034-.5-.015-.336-.026-.5.015-.437,0-.6a1.232,1.232,0,0,1,.542-.03c.255,0,.255.145.509.145s.255-.028.511-.028.256.067.512.067.256-.061.511-.061.256.008.512.008.256.041.513.041.256-.01.512-.01.256-.059.512-.059.256.1.511.1.257-.124.514-.124.257.09.514.09.258.027.516.027.258-.213.516-.213c.177,0,.357.022.529.028s.355.039.526.053.348.094.518.114.354.038.523.067.356.035.524.073.309.216.474.263.376-.018.538.04.334.127.491.2.284.225.436.306.359.091.5.187.336.153.471.261.2.315.323.437a5.1,5.1,0,0,1,.333.407c.111.134.315.209.412.354s-.052.422.027.571a4.882,4.882,0,0,1,.22.44c.064.156.174.285.223.446s.16.3.194.469.075.33.092.5.152.335.154.5-.3.328-.311.5.2.357.169.525-.255.29-.3.454.15.392.1.553-.182.3-.248.455c-.039.091-.23.125-.264.219-.1.269.033.316-.065.585s.005.306-.093.576-.128.259-.226.529-.214.228-.313.5c-.059.164.042.373,0,.538s-.087.325-.118.493-.15.322-.168.493.048.343.045.515.01.336.021.508-.207.37-.181.541.184.321.224.489.057.343.111.508.059.351.126.51.246.268.325.422.2.276.295.423.141.316.245.454.252.234.366.363.147.334.273.454.2.31.33.419.4.038.548.135.294.163.446.248.281.19.439.263.282.214.445.274.326.125.492.17.337.09.506.121.337.129.508.146.354-.025.526-.023.356.09.528.079.326-.231.5-.257.346-.011.514-.05.306-.168.471-.222.386.05.545-.016.247-.285.4-.365.354-.069.5-.161.365-.09.5-.194.251-.253.381-.368.169-.326.289-.451.229-.254.338-.389.312-.2.409-.345,0-.4.088-.553.213-.269.286-.428.237-.274.3-.438c.092-.253.1-.25.193-.5s-.07-.313.022-.566.3-.178.394-.432.1-.25.2-.5c.064-.157.068-.336.128-.493s.015-.354.071-.514.1-.319.156-.48.171-.3.217-.463-.059-.365-.016-.528.164-.3.2-.469.245-.293.278-.459.061-.336.09-.5.058-.336.083-.5-.169-.363-.149-.531.193-.319.208-.487-.042-.343-.031-.511.087-.334.094-.5-.036-.339-.035-.508.024-.339.02-.507.1-.343.087-.512-.059-.338-.071-.506-.115-.331-.132-.5-.036-.336-.058-.5.022-.345,0-.512-.177-.312-.208-.478-.138-.314-.174-.479,0-.344-.042-.508.074-.369.029-.532-.257-.277-.308-.438.045-.371-.01-.531-.3-.251-.357-.41.113-.407.049-.563-.237-.269-.305-.424-.079-.337-.151-.489-.274-.242-.351-.393-.023-.371-.1-.519-.164-.3-.249-.445-.166-.3-.256-.442-.241-.249-.335-.389-.325-.2-.424-.336-.142-.322-.246-.459-.2-.278-.311-.412-.282-.212-.394-.343-.067-.4-.182-.528-.316-.18-.435-.3-.323-.162-.447-.283-.255-.226-.382-.343-.227-.257-.357-.371-.237-.25-.371-.359-.27-.211-.406-.317-.219-.281-.358-.383-.317-.147-.46-.245-.262-.227-.407-.32-.25-.251-.4-.341-.346-.093-.5-.179-.356-.065-.508-.146-.185-.391-.34-.469-.329-.116-.486-.19-.39.028-.549-.041-.245-.305-.4-.37-.363-.019-.525-.08-.334-.084-.5-.141-.326-.1-.491-.157-.329-.093-.494-.142-.264-.334-.431-.379-.345-.051-.513-.091-.334-.1-.5-.135-.35-.023-.519-.056-.367.092-.538.062-.34-.044-.511-.069-.31-.276-.482-.3-.368.182-.54.165-.333-.138-.506-.152-.352.1-.525.087-.337-.125-.511-.132-.345-.016-.519-.019-.345.01-.519.01c-.252,0-.252.066-.5.066s-.252.013-.5.013-.252.031-.5.031-.252-.163-.5-.163-.252.177-.5.177-.252-.159-.5-.159-.252-.042-.5-.042-.252-.027-.5-.027-.252-.038-.5-.038-.253.253-.5.253-.252-.151-.5-.151-.251.142-.5.142-.252-.167-.5-.167-.253-.01-.506-.01-.252.073-.5.073-.252-.088-.5-.088-.253.164-.506.164-.253.062-.505.062-.253-.054-.505-.054-.252-.078-.5-.078-.253-.127-.507-.127-.253.031-.507.031-.254.142-.509.142-.254-.1-.509-.1c-.169,0-.334.11-.5.121s-.359-.182-.526-.16-.309.228-.474.26-.3.157-.468.2-.379-.1-.538-.046-.276.23-.432.293-.347.047-.5.119-.283.188-.431.271-.323.118-.466.21-.336.117-.471.217-.138.373-.268.481-.391.071-.513.188-.132.346-.247.471-.317.174-.423.3-.136.323-.233.46-.3.213-.384.356-.14.316-.219.464.049.4-.021.551-.273.247-.333.4-.134.311-.184.472-.039.339-.079.5-.193.306-.222.472-.11.332-.129.5-.013.345-.021.514,0,.345.006.514.127.334.141.5-.115.354-.1.524.131.334.145.5.173.331.187.5-.2.359-.188.53.124.334.137.505.079.337.092.508.033.342.046.512-.1.351-.088.522.23.327.242.5-.069.349-.057.52-.131.353-.119.524.128.334.14.505.153.333.165.5-.093.35-.082.521.067.339.078.509.072.339.084.509-.022.345-.011.515.082.339.094.509-.031.346-.02.516.112.337.123.507-.088.35-.078.52.048.34.059.511.13.336.141.506-.24.358-.23.529.062.339.073.51.007.343.016.514.241.329.25.5-.216.356-.207.526.107.337.116.508-.025.344-.016.515.112.337.121.508-.1.348-.092.519.169.334.178.5.053.34.062.511-.115.349-.106.519.175.334.184.505.015.342.023.512-.082.347-.074.518-.107.348-.1.518.042.341.05.511-.011.343,0,.514.217.334.225.5-.024.344-.017.515.03.342.036.512-.125.348-.119.518.1.339.11.509-.11.346-.1.517.131.338.137.509.036.341.042.512-.1.345-.093.516-.005.342,0,.513.214.336.219.506-.2.349-.191.519.15.338.154.508-.065.345-.061.515,0,.342.007.512-.125.345-.121.515.26.336.263.506-.044.343-.04.514-.176.346-.173.516.077.341.08.511.118.34.121.51-.181.345-.178.515.251.338.253.508-.156.345-.153.515.03.342.032.512-.021.342-.019.512,0,.342,0,.512.047.342.049.511-.1.343-.1.513-.012.342-.012.512.22.341.221.511-.107.342-.107.512,0,.343,0,.515-.012.343-.012.514.016.344.015.515-.064.343-.065.514-.026.343-.027.514-.034.343-.035.514.079.344.077.515.091.345.09.515.026.344.024.514-.111.342-.114.512-.1.342-.1.512.051.344.048.514.19.347.187.517-.039.342-.044.512.021.344.017.514-.23.337-.235.507.212.349.207.519-.128.339-.134.509-.141.338-.147.508.159.348.153.518-.089.34-.1.509-.107.338-.115.508.226.352.218.522-.155.336-.163.5.022.344.014.513-.013.342-.022.511-.159.334-.169.5.221.355.211.524-.17.333-.181.5.09.348.078.517-.248.325-.26.494.145.353.133.521.045.346.032.514-.158.33-.171.5-.109.333-.123.5.059.348.044.515-.009.342-.025.509.016.344,0,.511-.175.325-.193.491-.084.333-.1.5.237.371.218.537-.311.307-.331.473.024.349,0,.515.094.359.072.526-.208.317-.231.483.172.373.147.537-.291.3-.317.465-.01.344-.038.508.15.375.119.538-.188.313-.221.475-.05.341-.085.5-.19.308-.228.469-.07.335-.11.494-.079.333-.124.49-.028.353-.078.508-.055.349-.11.5c-.061.168-.12.33-.183.477-.071.165-.227.281-.3.42a3.978,3.978,0,0,1-.267.423c-.1.143-.1.343-.191.491s-.314.227-.388.382-.01.374-.071.535-.309.266-.356.431.125.39.091.559-.088.331-.108.5-.07.339-.076.512.1.339.108.512-.113.354-.09.525.118.33.155.5.043.344.094.509.05.351.114.511.226.278.3.433.232.257.322.406.136.313.238.454.2.276.312.407.17.31.294.431.173.332.307.443.387.067.53.167.284.231.44.322.253.319.417.4.415-.037.585.025.311.228.486.276.363.066.542.1.365.045.546.061.366-.016.548-.016.343.119.51.106.309-.242.474-.269.373.154.536.115.3-.2.455-.252.293-.165.447-.231.31-.116.459-.194.359-.048.5-.137.168-.345.3-.445.395-.042.522-.153.147-.333.264-.453.316-.167.423-.3.122-.328.219-.466.331-.186.427-.334.18-.291.271-.442.065-.355.151-.509.241-.256.322-.412.182-.29.259-.449-.007-.377.065-.538.186-.288.253-.451.048-.345.112-.509.194-.288.254-.453.244-.275.3-.442.121-.32.175-.487-.07-.378-.019-.545.024-.345.071-.514.207-.294.253-.463.125-.319.168-.489-.039-.36,0-.53.088-.328.127-.5.174-.311.211-.481.1-.328.135-.5.123-.325.156-.5-.2-.386-.168-.558.182-.313.213-.485.05-.338.079-.51.129-.325.157-.5.023-.342.049-.515.054-.335.079-.506.159-.322.183-.493.024-.342.047-.514-.031-.349-.009-.522.012-.343.033-.516.033-.341.053-.514.092-.335.111-.508-.034-.349-.016-.523.107-.332.124-.5-.009-.345.007-.518.107-.336.122-.509-.111-.356-.1-.53-.022-.346-.008-.519.108-.337.121-.512.068-.343.081-.517c.1.139.238.255.342.395s.067.38.171.52.324.19.429.33.187.293.293.432.138.331.244.47.376.147.482.284.057.394.164.532.362.158.469.295.04.411.148.548.4.126.511.263.133.338.242.474.157.32.267.457.191.294.3.43.276.226.386.362.233.262.343.4.341.173.452.309.068.356.18.491c-.12.13-.11.339-.232.466s-.236.265-.36.391-.334.166-.459.29-.237.262-.364.385-.367.123-.5.243-.224.275-.355.394-.179.328-.312.445-.355.128-.489.243-.179.334-.314.446-.2.309-.342.42-.38.09-.519.2-.24.268-.381.376-.292.19-.419.3-.283.208-.4.333-.266.234-.373.369-.049.39-.144.533-.19.279-.273.429-.154.3-.224.457-.176.294-.233.457-.274.279-.317.446.023.363-.007.534.038.35.022.522-.075.337-.076.509-.143.353-.13.525.108.34.134.512.085.336.127.5.217.291.272.455.073.331.142.491.088.334.17.487.248.246.342.393.167.292.273.431.079.389.2.518.217.289.344.408.4.07.539.178.271.208.416.3.277.2.429.288.268.241.428.311.285.247.45.3.351.081.52.124.353.059.525.088.349.092.523.107.359.007.534.007.331-.237.5-.251.324-.061.492-.088.336-.008.5-.05.382.1.545.041.331-.111.488-.179.268-.235.42-.316.234-.263.379-.356.34-.1.477-.2.344-.107.477-.211.216-.273.347-.377.325-.137.456-.244.17-.325.3-.432.363-.094.491-.2.24-.24.368-.35.1-.393.231-.5.377-.084.5-.2.182-.3.306-.414.352-.117.475-.232.171-.311.292-.427.2-.276.322-.394.214-.262.333-.38.287-.217.4-.337c.122.136.291.249.407.379s.223.285.34.416.21.3.327.428.311.208.428.337.212.3.327.427.313.208.427.334c.128.141.2.323.308.447.131.144.226.3.336.42.139.151.173.362.274.472.192.208.446.22.49.267.119.128.141.349.267.465s.355.114.491.22.267.21.411.3.259.235.41.316.279.22.437.289.382-.039.545.016.3.167.471.209.323.125.494.153.346-.013.518,0,.339.194.512.194.337-.2.509-.216.335-.041.506-.07.343-.013.511-.056.354-.018.518-.075.341-.085.5-.155.3-.176.456-.259.356-.091.5-.187.136-.4.273-.509.3-.171.425-.29.38-.115.5-.242.2-.292.31-.428.244-.263.337-.407.081-.36.163-.511.071-.346.14-.5.213-.285.268-.448.068-.339.109-.506.131-.325.159-.5.177-.333.191-.505-.013-.357-.013-.53-.134-.343-.149-.516-.1-.331-.127-.5.016-.354-.027-.522-.231-.284-.288-.448.125-.419.055-.577-.2-.294-.283-.447-.188-.294-.284-.439-.128-.342-.236-.479-.291-.214-.409-.343M289.8,54.825c-.04.167.025.359-.016.525s-.112.326-.155.491-.147.317-.192.482.046.37,0,.535-.259.283-.308.446.093.386.042.549-.2.3-.252.46-.228.285-.282.447.046.377-.01.539-.3.255-.361.416-.09.329-.149.488.036.379-.025.537-.172.353-.235.509c-.1-.133-.27-.283-.374-.416s-.268-.221-.371-.354-.171-.3-.274-.429-.247-.239-.348-.372.03-.447-.071-.581-.28-.212-.38-.346-.281-.216-.381-.352-.234-.251-.333-.386-.19-.282-.288-.417-.147-.311-.243-.447-.243-.241-.338-.377-.2-.274-.295-.412-.119-.325-.211-.462-.247-.241-.336-.378-.133-.326-.217-.472-.22-.276-.3-.427,0-.379-.067-.535-.244-.272-.3-.432-.144-.319-.187-.483-.009-.352-.04-.52-.06-.336-.078-.506.075-.343.07-.515a2.264,2.264,0,0,1,.029-.479c.03-.174-.141-.4-.081-.545.067-.164.353-.2.439-.335.1-.151.113-.346.216-.452a3.114,3.114,0,0,1,.442-.341c.141-.1.24-.335.428-.415.161-.068.4.03.6-.009.173-.035.354-.225.555-.225.164,0,.339.026.5.042s.287.286.446.318.354-.087.509-.039a4.81,4.81,0,0,1,.469.152c.15.064.2.315.346.394s.325.075.459.167.266.181.391.286.181.27.295.388a4.755,4.755,0,0,1,.29.378c.1.121.327.168.432.336.087.14.295.238.377.408.074.151-.09.414-.027.588s.318.269.359.449a5.331,5.331,0,0,1,0,.547,4.255,4.255,0,0,1,.128.533,5.218,5.218,0,0,1-.091.539c-.021.171-.161.327-.2.507" transform="translate(-102.163 -0.847)" fill="#7f4112"/>
        <path id="Path_340" data-name="Path 340" d="M113.715,44.514c-.079-.156,0-.4-.087-.545s-.336-.2-.431-.346-.051-.388-.154-.527-.244-.254-.355-.388-.2-.287-.323-.413-.4-.093-.522-.212-.107-.4-.239-.509-.283-.207-.422-.311-.369-.076-.514-.172-.238-.268-.388-.355-.282-.21-.437-.288-.321-.136-.48-.205-.306-.176-.469-.235-.327-.13-.493-.179-.322-.163-.491-.2-.378.1-.549.071-.325-.184-.5-.2-.361.146-.535.136-.341-.227-.515-.227c-.257,0-.257.055-.515.055s-.257.086-.515.086-.257.134-.514.134-.259-.182-.517-.182-.259.047-.517.047-.259-.115-.519-.115-.284.217-.528.129c.042-.171.235-.345.265-.517s-.043-.368-.025-.542.091-.351.1-.526-.018-.358-.025-.533-.205-.336-.224-.511.133-.373.1-.545-.1-.342-.145-.511-.033-.361-.087-.528-.177-.314-.243-.476-.146-.322-.223-.479-.078-.362-.165-.514-.2-.295-.3-.441-.2-.3-.306-.437-.279-.23-.4-.361-.21-.29-.337-.412-.323-.168-.457-.282-.259-.236-.4-.34-.388-.253-.537-.347c.13-.214.3-.091.494-.246s.152-.211.348-.365.26-.073.457-.227.136-.23.333-.383.308-.012.505-.167.073-.313.271-.468.339.025.537-.13.109-.268.307-.423c.058-.045.162-.036.217-.082.133-.112.126-.382.254-.5s.346-.131.472-.249.2-.295.317-.416.243-.242.362-.367.242-.244.358-.371.205-.277.317-.407.2-.278.309-.412.329-.18.433-.317.184-.294.284-.434.255-.245.351-.388.141-.322.232-.468.188-.29.276-.438.209-.28.292-.432.155-.31.233-.464.1-.336.174-.492.234-.274.3-.432.02-.366.083-.526.208-.291.266-.454.139-.319.192-.483-.1-.39-.055-.556.108-.323.15-.491.1-.327.137-.5.131-.323.161-.493.048-.34.072-.511.015-.344.033-.515.171-.331.183-.5-.105-.351-.1-.523.01-.343.01-.515.081-.345.075-.518-.114-.338-.126-.51-.093-.334-.11-.506.071-.353.047-.524-.021-.345-.051-.515-.18-.314-.216-.483.187-.4.145-.566-.1-.334-.149-.5-.157-.312-.21-.474-.18-.3-.238-.459-.135-.313-.2-.47-.244-.263-.313-.419.128-.435.054-.588-.356-.2-.436-.353.013-.4-.071-.545-.383-.167-.473-.311-.119-.325-.214-.466-.056-.377-.155-.515-.313-.193-.417-.327-.294-.2-.4-.328-.192-.277-.3-.4-.136-.335-.253-.459-.349-.132-.469-.252-.237-.237-.362-.354-.185-.3-.313-.411-.305-.162-.437-.27-.268-.2-.4-.308-.128-.4-.267-.5-.351-.093-.492-.188-.267-.213-.411-.3-.259-.231-.405-.318-.352-.07-.5-.153-.319-.12-.47-.2-.276-.2-.429-.276-.328-.094-.484-.164-.263-.246-.42-.311-.281-.219-.44-.28-.394.084-.555.027-.326-.087-.489-.14-.311-.134-.474-.183-.3-.175-.467-.219-.326-.1-.492-.138-.33-.082-.5-.118-.319-.141-.487-.172-.346-.008-.515-.035S93.72.468,93.55.445C93.49.436,93.282.62,93.038.6c-.146-.013-.31-.074-.486-.087-.161-.013-.334.062-.5.051s-.33-.2-.483-.2c-.2-.009-.367.148-.49.15-.172,0-.346-.1-.516-.093s-.352-.108-.522-.1S89.7.392,89.53.407s-.33.156-.5.175-.34.044-.509.066S88.16.574,87.992.6s-.3.27-.472.3-.348,0-.515.039-.36-.033-.526,0-.339.071-.5.113-.288.254-.452.3-.393-.119-.556-.069-.335.092-.5.145-.308.168-.469.225-.286.219-.446.279-.318.127-.476.191-.346.062-.5.13-.251.279-.405.35-.346.067-.5.141-.387,0-.538.072-.305.162-.456.242-.3.164-.453.247-.191.358-.337.444-.376.042-.52.131-.255.242-.4.334-.326.131-.468.225-.261.233-.4.33-.3.181-.434.28-.341.122-.476.225-.251.244-.384.348-.217.283-.347.389-.267.22-.394.328-.308.173-.434.284-.177.322-.3.434-.2.289-.324.4-.3.186-.42.3-.363.131-.477.249-.119.37-.231.489-.354.155-.462.275c-.123.137-.086.4-.188.514-.125.147-.427.118-.519.231a2.569,2.569,0,0,0-.225.474c-.1.14-.26.25-.352.394s-.058.369-.137.522-.291.25-.357.408-.133.33-.186.494-.112.339-.151.506,0,.359-.03.53.115.358.1.53-.087.338-.084.511.005.343.022.515.125.326.156.5-.137.385-.092.552.2.3.263.465.231.272.3.429.158.294.244.445.137.308.235.452.168.3.277.431.222.255.342.381.178.308.308.423.3.171.442.276.257.235.4.326.261.248.413.327.354.067.512.133.356.015.52.067.26.35.428.389.354.033.525.058.362-.144.534-.133.339.2.512.2.339-.13.511-.147.333-.078.5-.109.33-.075.5-.119.321-.1.483-.163.418.105.575.033.3-.19.454-.274.315-.165.459-.262.258-.244.394-.354.159-.34.285-.46.23-.246.346-.377.4-.118.508-.257a.707.707,0,0,1,.171-.537c.1-.109.3-.165.44-.307.113-.113.153-.325.29-.453.121-.112.322-.152.462-.273s.262-.22.4-.334.261-.227.4-.336.241-.26.388-.363.282-.209.432-.306.282-.214.435-.305.383-.034.54-.118.231-.321.391-.4.385-.006.548-.076.337-.1.5-.158.334-.093.5-.148.34-.065.511-.111.28-.332.454-.369.374.079.549.052.331-.191.508-.208.361.136.538.128c.124.008.274.03.426.041s.322-.05.436-.041c.179.027.336.147.505.183s.39-.076.556-.028.371.051.531.113.322.189.476.265a4.7,4.7,0,0,1,.431.33c.154.1.216.3.346.412a3.212,3.212,0,0,1,.386.34c.117.138.334.2.417.353a2.475,2.475,0,0,1,.111.528c.047.164.177.319.186.49s-.21.317-.239.489.108.365.049.53a3.574,3.574,0,0,1-.128.515c-.078.145-.336.192-.436.337s-.1.346-.211.48-.291.191-.416.315-.214.265-.348.38c-.2.164-.242.114-.448.275s-.261.092-.467.254-.075.328-.28.489-.33,0-.535.162-.111.282-.316.443-.282.066-.488.228-.149.234-.356.395-.282.064-.488.225-.182.194-.388.356-.068.339-.274.5-.3.042-.506.2-.218.145-.424.307-.172.207-.379.369-.282.067-.489.23-.244.118-.451.28-.2.178-.4.34c-.139.108-.162.214-.289.331-.231-.051-.23-.005-.435-.124s-.134-.243-.34-.362-.259-.029-.465-.148-.28.007-.486-.112-.092-.317-.3-.437c-.151-.087-.354-.085-.508-.161s-.336-.1-.494-.164-.323-.118-.486-.172-.3-.225-.463-.268-.38.12-.549.089-.322-.149-.494-.168-.336-.189-.508-.2-.353.094-.525.1-.336.143-.508.159-.356-.079-.526-.052-.332.1-.5.142-.319.13-.485.181-.34.062-.5.124-.293.182-.45.254-.331.1-.483.184-.25.245-.4.338-.346.1-.485.2-.256.23-.388.342-.18.3-.3.425-.43.064-.546.194-.2.293-.3.43-.22.272-.317.417,0,.4-.085.555c-.126.217-.331.1-.456.317s-.05.261-.175.479c-.087.151-.208.285-.283.439s-.062.353-.127.511-.238.283-.292.446.042.373,0,.54-.044.339-.075.508-.187.319-.206.491.125.353.118.525-.01.337-.007.509-.084.345-.068.517-.084.36-.057.531.088.34.127.508.061.346.111.512.3.262.36.423.091.329.163.486.161.3.244.451.05.369.144.515.265.236.368.376.114.351.227.482.316.179.437.3.259.222.389.337.19.308.328.414.268.222.413.319.394.013.545.1c.233.134.13.314.363.449s.3.014.537.148.2.2.429.334.23.141.462.275.167.25.4.385.36-.082.594.053.21.181.444.316.377.032.319.3-.143-.028-.408-.028-.263.111-.527.111-.263-.187-.526-.187-.263.246-.528.246-.265-.161-.529-.161-.264.025-.528.025-.265-.025-.529-.025-.265,0-.53,0-.265.044-.529.044-.265-.1-.529-.1-.263-.015-.528-.015-.266.219-.531.219-.266-.108-.532-.108-.267-.005-.533-.005-.267-.011-.533-.011c-.174,0-.349.024-.52.038s-.357-.027-.526,0-.353.042-.52.084-.353.064-.515.12-.3.2-.46.268-.273.231-.425.313-.281.2-.425.29-.346.108-.483.214-.333.152-.46.27-.215.285-.332.412-.078.384-.184.521-.228.251-.322.4-.153.3-.236.452-.356.208-.426.367.074.4.018.562-.216.29-.259.459-.205.314-.234.485.121.365.106.539-.1.339-.1.514-.086.357-.072.528.274.316.3.485-.074.365-.031.532.129.323.185.486.122.322.191.48.021.38.1.531.378.177.472.322.071.369.177.506.3.2.419.322.081.411.208.528.372.1.508.21.314.147.459.241.224.294.376.377.277.234.436.3.356.051.52.108.336.085.5.127.344.03.515.059.326.19.5.2.352.069.526.069c.253,0,.253-.277.506-.277s.254.273.508.273.253-.066.507-.066.253-.141.506-.141.253.162.506.162.253-.225.507-.225.253.24.506.24.253-.047.505-.047.253-.213.506-.213.254.127.508.127.254-.02.507-.02.254.119.508.119.254-.012.509-.012.254-.009.508-.009.254-.073.508-.073S80.7,52,80.958,52s.254,0,.509,0,.255.091.51.091.256.011.511.011.386-.263.567-.081-.141.312-.141.569.145.257.145.514-.2.257-.2.514.222.256.222.512-.029.257-.029.513-.038.256-.038.512.1.256.1.512-.139.256-.139.512.067.256.067.512-.039.256-.039.512-.062.256-.062.512.1.256.1.513.086.257.086.514-.053.257-.053.514-.009.257-.009.515-.081.258-.081.516-.124.258-.124.516.19.257.19.515-.034.257-.034.514-.158.257-.158.515.2.257.2.514-.116.257-.116.514.022.257.022.514.01.257.01.514.04.258.04.515-.127.258-.127.516.211.259.211.517-.219.258-.219.516.118.258.118.515.059.258.059.515-.019.257-.019.515-.13.257-.13.515.2.258.2.517-.209.258-.209.517.147.258.147.517-.118.257-.118.515.108.258.108.517-.167.258-.167.517,0,.259,0,.517.125.258.125.516-.088.258-.088.516-.032.259-.032.517.168.258.168.515-.054.257-.054.515.087.258.087.516S83,75.5,83,75.76s-.137.259-.137.517-.012.259-.012.517.18.259.18.519.076.259.076.517-.12.259-.12.518-.038.258-.038.516.125.26.125.519-.01.26-.01.52-.1.26-.1.522-.029.26-.029.521c0,.175-.048.357-.035.529s.3.311.331.48-.058.359-.015.526.1.329.155.492.05.352.12.51.174.3.257.454.169.3.263.448.108.355.214.491.241.26.359.388.3.2.424.317.279.206.416.312.28.2.425.295.267.23.419.313.339.094.5.164.293.2.457.256.342.065.511.107.323.151.495.18.359-.093.532-.078.338-.031.513-.031.344.073.515.059.348,0,.518-.024.331-.1.5-.144.387.072.549.016.277-.256.435-.325.326-.121.478-.2.352-.1.5-.19.164-.366.3-.472.395-.068.522-.185.116-.373.233-.5.4-.116.505-.253.014-.416.109-.56.271-.234.354-.386.229-.276.3-.434.168-.313.224-.477.037-.355.079-.523.063-.341.091-.512-.1-.355-.091-.529.206-.333.206-.508c0-.257-.163-.257-.163-.514s-.013-.257-.013-.514.12-.257.12-.514-.022-.256-.022-.513.164-.256.164-.512-.05-.256-.05-.512-.124-.256-.124-.512.137-.256.137-.512-.139-.256-.139-.512-.108-.256-.108-.512.167-.256.167-.512-.063-.257-.063-.513.033-.257.033-.514.043-.257.043-.514.041-.257.041-.515-.2-.258-.2-.516.01-.258.01-.516,0-.257,0-.515.047-.257.047-.515.173-.257.173-.514-.107-.257-.107-.514-.091-.257-.091-.514.05-.257.05-.514.147-.257.147-.515-.076-.257-.076-.515-.024-.258-.024-.516-.136-.259-.136-.517.042-.258.042-.516.057-.258.057-.515-.1-.258-.1-.515.024-.257.024-.515.181-.257.181-.515.041-.258.041-.517-.217-.259-.217-.517,0-.259,0-.517.025-.258.025-.516.09-.258.09-.516.118-.259.118-.517-.03-.259-.03-.517-.022-.258-.022-.516.041-.258.041-.516-.015-.259-.015-.517-.231-.257-.231-.515-.028-.257-.028-.515.053-.257.053-.515.193-.259.193-.518.008-.259.008-.517-.1-.259-.1-.517-.115-.259-.115-.519.109-.259.109-.518.125-.259.125-.517-.081-.258-.081-.516.1-.26.1-.519-.144-.26-.144-.52.16-.26.16-.522-.25-.25-.064-.433.179-.193.445-.193.265.188.531.188.265-.1.531-.1.266.153.532.153.267-.109.534-.109.268-.059.535-.059.451-.231.593,0c.13.21-.177.254-.319.457s-.107.227-.248.43c-.1.143-.211.272-.3.42s-.205.282-.279.437-.058.348-.118.509-.155.307-.2.472,0,.349-.031.518-.131.322-.15.493-.067.338-.071.511-.121.35-.111.522.2.328.227.5-.085.365-.048.533.224.3.275.462.1.323.162.485.075.339.153.494.1.339.191.488.334.187.437.326.15.31.264.442.191.288.316.409.29.187.424.3.165.353.308.453.407.039.563.129.315.167.479.243.307.192.477.253.32.191.495.237.349.125.528.157.368.025.548.041.365.122.546.122.326-.259.494-.273.333.024.5,0,.368.118.531.078.321-.125.481-.177.337-.078.492-.144.259-.247.408-.325.245-.24.387-.329.327-.108.462-.208.239-.233.366-.345.284-.185.4-.306.328-.164.436-.294.187-.29.283-.429c.146-.21.043-.281.189-.491s.1-.246.242-.456.214-.164.362-.374.026-.294.173-.5.362-.061.508-.271.1-.244.248-.454.134-.22.281-.431.219-.16.366-.371.092-.248.239-.459.117-.233.264-.444.042-.285.19-.5.242-.147.389-.359.029-.3.178-.508c.1-.138.181-.283.273-.424s.326-.2.411-.34.148-.308.227-.457.263-.253.334-.406.13-.32.193-.477.073-.34.129-.5-.075-.379-.028-.541.293-.272.332-.437.081-.334.111-.5.045-.34.067-.508.091-.336.1-.505.054-.344.058-.513-.162-.342-.167-.512.014-.34,0-.509,0-.342-.027-.51.054-.357.022-.524-.176-.313-.217-.477-.12-.319-.17-.482-.039-.346-.1-.506-.258-.26-.326-.416-.158-.294-.235-.446" transform="translate(-26.209 -0.127)" fill="#7f4112"/>
        <path id="Path_341" data-name="Path 341" d="M37.65,16.138c-.224-.131-.222-.134-.446-.265s-.2-.174-.422-.3-.33.05-.553-.081-.23-.119-.454-.25-.2-.171-.425-.3-.219-.141-.443-.271-.23-.122-.453-.253-.155-.249-.379-.38-.193-.184-.417-.314-.293-.014-.517-.145-.168-.222-.391-.353-.319.035-.542-.1-.1-.336-.328-.467-.236-.113-.46-.244-.231-.118-.455-.248-.288-.022-.511-.152-.214-.148-.438-.278-.215-.149-.44-.28-.3,0-.525-.131-.1-.343-.325-.475-.312.018-.537-.114-.257-.076-.482-.207-.233-.116-.458-.247-.2-.167-.428-.3-.1-.346-.326-.478-.28-.039-.506-.17-.3,0-.529-.134-.171-.226-.4-.359c-.145-.087-.261-.231-.411-.3s-.378.026-.534-.035-.258-.276-.419-.325-.365.078-.529.042-.316-.106-.482-.128-.323-.142-.491-.151-.339,0-.506,0-.335.038-.5.056-.35-.047-.515-.016-.3.188-.467.231-.354,0-.512.054-.3.156-.457.225-.266.216-.414.3-.35.07-.491.163-.293.177-.426.281-.244.239-.368.354c-.189.174-.071.3-.26.476s-.308.045-.5.219-.111.257-.3.431-.163.2-.351.375-.263.092-.452.265-.107.262-.295.436-.337.012-.526.185-.041.334-.229.508-.3.055-.486.228-.116.253-.3.427-.209.153-.4.326-.232.128-.421.3-.093.279-.282.452-.305.047-.494.221-.055.32-.243.494-.259.1-.448.271-.277.079-.466.253-.078.295-.268.469-.326.025-.516.2-.17.194-.359.368-.075.3-.263.469-.19.171-.378.344-.182.179-.369.353-.137.229-.325.4-.219.141-.408.314-.155.211-.344.386-.389-.041-.579.133-.123.246-.313.42-.124.245-.313.419-.162.2-.351.378-.2.167-.388.342-.231.129-.421.3-.149.219-.339.394-.184.182-.374.357-.247.113-.437.288-.141.228-.331.4-.231.128-.421.3-.152.217-.343.393-.3.055-.493.23-.107.267-.3.443-.166.2-.357.38c-.128.119-.3.186-.419.313s-.228.263-.333.4-.3.222-.389.365-.185.3-.267.456.048.408-.021.566-.348.236-.4.4.005.368-.037.535-.1.333-.13.5.107.357.093.529S0,28.35,0,28.523s.177.334.192.506.016.335.045.506-.179.39-.136.558.248.29.3.454.134.314.2.473-.036.405.047.558.259.256.354.4.205.281.313.419.16.324.278.452.227.28.353.4.368.112.5.218.35.1.494.19.163.4.314.483.4-.038.563.031.281.217.445.273.354,0,.521.047.319.128.489.157.324.207.5.221.353,0,.526,0c.016,0,.142-.043.158-.044-.066.175-.218.327-.269.509s-.159.349-.194.534-.088.372-.1.56-.031.38-.031.57c0,.207,0,.207,0,.414s-.011.207-.011.414c0,.174.108.346.122.517s-.076.363-.048.532.131.333.173.5.272.276.328.438.054.34.123.5.068.348.15.5.171.3.265.445.261.234.366.37.09.377.207.5.2.3.331.416.429.029.566.135.2.313.339.408.27.228.422.31.308.17.466.24.309.181.472.236.365,0,.532.047.35,0,.521.031.322.219.5.233.353-.141.527-.141c.231,0,.231-.049.462-.049s.232-.023.464-.023.232.044.464.044.233.053.466.053.33-.179.5-.021-.063.253-.063.468-.111.216-.111.431.375.368.217.515-.309.039-.54.039-.232-.235-.464-.235-.232.239-.465.239-.233-.24-.466-.24-.233.257-.466.257c-.174,0-.359-.286-.529-.272s-.327.216-.5.244-.38-.1-.546-.06-.257.35-.42.406-.384-.044-.542.025-.248.274-.4.356-.413-.017-.557.078-.262.241-.4.347-.3.193-.425.31-.159.333-.276.46-.247.242-.353.378-.125.33-.219.475-.308.215-.39.367-.026.368-.1.526-.131.31-.188.474-.28.276-.323.443.1.373.075.544-.224.318-.237.491.018.35.018.524c0,.207-.032.207-.032.414s.221.208.221.415c0,.174-.213.353-.2.523s.056.348.084.517.215.306.257.472,0,.357.053.519.079.342.148.5.163.308.245.459.134.326.229.47.187.3.293.434.172.319.288.446.37.125.5.242.177.329.313.435.382.059.527.154.185.366.337.448.338.111.5.181.351.053.515.109.359-.025.528.017.293.254.464.282.347,0,.52.017.342.137.516.137c.231,0,.231-.131.462-.131s.232.179.464.179.232-.1.464-.1.233.062.466.062.239-.216.4-.05.161.175.161.413-.178.239-.178.477.108.235.036.462c-.164.045-.314,0-.475.053s-.3.167-.464.222-.317.123-.475.184-.353.037-.509.1-.305.156-.459.227-.314.138-.465.214-.27.219-.419.3-.319.127-.465.213-.241.257-.384.347-.3.166-.436.261-.208.29-.345.389-.342.105-.475.209-.22.265-.35.373-.326.139-.452.251-.186.3-.309.414-.371.105-.491.225-.091.382-.207.506-.4.1-.511.224-.112.351-.219.483-.27.219-.373.353-.035.394-.134.531-.3.2-.4.34-.118.325-.207.469-.176.286-.261.432-.173.288-.253.437-.128.311-.2.463-.122.312-.193.466-.269.25-.334.406-.1.324-.16.482-.181.3-.234.456-.048.34-.1.5-.1.322-.147.486-.124.318-.163.483-.064.333-.1.5,0,.342-.032.509-.15.32-.173.489.082.35.065.519-.12.329-.131.5S3,74.494,3,74.664s.2.34.2.511-.016.337-.011.506-.009.338,0,.508-.039.343-.022.512.045.337.067.505.077.331.1.5-.077.36-.044.527.193.306.232.472.08.33.124.493.011.351.061.513.2.294.25.455.174.295.234.454.019.356.084.512.105.325.176.48.25.255.326.408-.086.428-.005.577.177.3.263.443.227.264.317.408.246.247.34.388.205.271.3.409.3.2.4.333-.022.453.085.585.393.114.505.242.078.389.194.513.411.075.531.2.19.289.314.405.139.354.267.467.348.118.48.225.331.127.466.23.25.228.388.328.207.3.348.391.369.051.514.141.284.179.431.265.247.251.4.331.334.09.486.165.306.139.461.209.216.356.373.422.363.01.523.07.308.146.469.2.306.164.469.213.359-.016.523.028.339.039.5.078.318.128.485.162.342.008.509.036.317.17.486.192.329.138.5.154.357-.186.527-.175.337,0,.508,0,.336.042.507.042c.254,0,.254.085.509.085s.254.013.508.013.254,0,.508,0,.253.073.507.073.254-.054.509-.054.255.091.511.091.256-.2.512-.2.256.047.512.047c.171,0,.337-.089.507-.094s.348.16.518.149.326-.185.495-.2.351.072.519.05.359.076.526.048.332-.1.5-.136.308-.191.474-.23.33-.083.494-.127.363.028.526-.021.258-.308.419-.363.339-.055.5-.114.357-.022.514-.088.319-.125.473-.2.233-.3.386-.375.405.044.555-.036.307-.154.454-.24.264-.227.408-.317.228-.274.369-.368.278-.194.416-.293.319-.141.453-.245.17-.33.3-.438.313-.153.44-.265.372-.1.5-.214.245-.24.366-.361.242-.243.359-.368.07-.4.182-.524.341-.156.449-.287.159-.31.262-.444.26-.231.359-.369.159-.3.254-.446.207-.272.3-.416.268-.239.353-.386.134-.319.215-.469.082-.342.157-.495.148-.305.219-.46.2-.284.268-.442.014-.36.075-.52.047-.341.1-.5.177-.3.227-.46.254-.282.3-.447-.081-.371-.042-.537.226-.3.259-.467-.131-.369-.1-.537.3-.3.323-.469-.074-.354-.058-.524.1-.335.108-.505-.121-.347-.116-.518.159-.339.159-.509,0-.343-.005-.512,0-.343-.015-.512-.1-.335-.111-.5-.194-.318-.216-.485.025-.344,0-.511-.05-.334-.082-.5-.151-.312-.189-.477.126-.38.082-.543-.2-.3-.245-.459-.213-.285-.268-.445-.124-.31-.183-.468-.085-.326-.15-.482-.1-.323-.169-.477-.147-.3-.221-.454-.071-.343-.151-.492-.219-.265-.3-.411-.136-.312-.225-.456-.116-.329-.21-.469-.271-.225-.369-.363-.292-.2-.395-.336,0-.428-.111-.558-.25-.236-.361-.363-.365-.126-.48-.25-.1-.373-.219-.492-.322-.154-.445-.271-.271-.2-.4-.313-.257-.216-.388-.323-.266-.2-.4-.308-.121-.4-.257-.5-.3-.167-.441-.262-.275-.2-.418-.295-.316-.137-.462-.222-.371-.031-.52-.112-.3-.147-.453-.222-.2-.357-.358-.428-.4.067-.555,0-.273-.225-.431-.287-.358,0-.518-.056-.286-.208-.448-.259-.323-.1-.487-.147c-.071-.227-.015-.237-.015-.475s-.065-.238-.065-.476-.152-.371.014-.542.3-.059.529-.059.232.163.464.163.232-.177.464-.177.233.159.466.159.233.042.466.042c.174,0,.354.019.525,0s.358,0,.528-.027.288-.31.455-.352.373.054.535,0,.27-.25.426-.319.385.005.535-.076.31-.165.454-.259.244-.256.38-.362.327-.152.454-.269.133-.354.25-.482.175-.291.281-.426.244-.237.339-.382.247-.248.33-.4.274-.253.343-.411.106-.337.162-.5-.031-.369.011-.537.176-.313.2-.484-.054-.352-.04-.526.231-.337.231-.511c0-.207-.182-.207-.182-.415s-.091-.207-.091-.414c0-.174.188-.352.174-.522s-.161-.33-.189-.5.026-.357-.016-.524-.133-.322-.189-.484-.064-.347-.133-.5-.07-.359-.151-.51-.355-.193-.449-.337-.032-.4-.138-.539-.337-.171-.454-.3-.155-.336-.282-.453-.321-.161-.457-.267-.208-.31-.353-.4-.32-.151-.472-.234-.4.045-.561-.024-.257-.271-.421-.327-.323-.125-.491-.167-.346-.022-.518-.05-.328-.17-.5-.184-.351-.078-.525-.078c-.23,0-.23.019-.461.019s-.232.014-.464.014-.232.115-.465.115-.233-.143-.466-.143-.268.273-.44.114-.134-.187-.134-.4.23-.216.23-.431-.263-.267-.105-.414.214-.047.445-.047.232-.007.464-.007.232.126.464.126.233-.2.466-.2.233.094.466.094c.174,0,.358.148.529.134s.339-.139.508-.167.311-.19.477-.231.364.022.526-.034.309-.159.466-.228.288-.188.44-.27.32-.13.464-.224.246-.241.382-.347.3-.174.425-.291.181-.3.3-.425.31-.183.416-.319.184-.29.278-.434.085-.342.167-.493.391-.19.461-.349.1-.34.151-.5.12-.33.162-.5-.139-.378-.111-.549.283-.31.3-.483-.066-.351-.066-.526c0-.207.044-.207.044-.414s-.094-.207-.094-.414c0-.174.112-.353.1-.524s-.186-.326-.214-.5-.1-.325-.139-.492.035-.368-.021-.53-.265-.263-.334-.42-.14-.3-.222-.455-.082-.345-.177-.489-.1-.358-.2-.494-.242-.255-.359-.382-.225-.271-.352-.388-.389-.073-.525-.179-.248-.233-.393-.327-.294-.166-.446-.248-.243-.281-.4-.351-.351-.048-.515-.1-.294-.224-.462-.266-.36.039-.532.011-.339-.025-.512-.039-.338-.131-.512-.131c-.257,0-.257-.018-.515-.018s-.259.2-.517.2-.258-.207-.516-.207-.257.14-.515.14-.258-.075-.515-.075-.257-.006-.515-.006-.257-.134-.515-.134-.258.252-.516.252-.259-.052-.517-.052-.258-.183-.516-.183-.258.07-.516.07-.258.111-.516.111-.259-.187-.517-.187-.259.245-.517.245-.258-.161-.516-.161-.258.025-.516.025-.258-.025-.517-.025-.258-.005-.515-.005-.257.044-.515.044-.258-.1-.515-.1-.259-.015-.518-.015-.259.219-.517.219-.258-.108-.517-.108-.259,0-.519,0-.259-.012-.517-.012-.259.016-.517.016-.259-.063-.517-.063-.259-.024-.519-.024-.26-.031-.52-.031-.261.081-.522.081-.464.31-.562.068.18-.245.369-.42.262-.1.452-.271.253-.107.443-.282.151-.216.34-.391.056-.319.245-.493.21-.151.4-.324.168-.2.357-.369.339-.011.528-.185.039-.337.228-.511.27-.088.46-.264.279-.08.469-.255.073-.3.263-.477.241-.119.431-.294.254-.106.443-.281.028-.353.219-.529.285-.073.475-.248.164-.2.355-.379.188-.179.38-.355.287-.072.477-.248.028-.353.219-.528.292-.065.482-.24.116-.257.308-.434.345-.01.537-.187.078-.3.27-.479.133-.4.393-.431.22.259.447.391.184.2.409.333.27.055.5.187.237.114.463.246.251.091.479.224.154.255.381.387.2.173.428.305.366-.107.592.025.09.369.317.5.26.075.487.208.3.011.525.144.146.273.374.406.34-.061.568.071.106.34.333.473.25.091.477.224.335-.051.563.082.164.243.393.376.239.116.468.25.169.236.4.37c.151.088.314.162.469.236s.325.137.485.2.351.049.517.1.345.032.514.066.336.055.507.075.336.124.508.129.348.015.52.005.333-.128.5-.151.371.108.539.071.3-.222.466-.273.4.081.559.017.23-.338.385-.416.315-.133.463-.222.311-.151.451-.254.207-.286.338-.4.349-.127.47-.251.187-.295.3-.428.244-.245.344-.388.245-.254.333-.405.081-.351.155-.506.062-.344.123-.5.164-.3.212-.466.1-.327.13-.5.141-.326.161-.5.156-.342.161-.515-.185-.348-.194-.52.009-.346-.014-.517.1-.374.065-.543-.276-.288-.327-.454,0-.366-.063-.528-.156-.312-.234-.467-.17-.3-.26-.451-.219-.269-.32-.409-.111-.356-.225-.488-.385-.113-.509-.234-.1-.4-.239-.51-.344-.125-.487-.225-.265-.229-.415-.317M21.389,80.314c-.243,0-.243,0-.486,0s-.244-.051-.487-.051-.243.21-.488.21c-.172,0-.356,0-.524-.013a5.119,5.119,0,0,1-.509-.128,4.974,4.974,0,0,1-.5-.145c-.163-.053-.333-.108-.489-.177s-.247-.27-.394-.355a4.941,4.941,0,0,1-.387-.326c-.138-.1-.352-.1-.479-.214s-.169-.308-.283-.436-.37-.139-.471-.277.007-.409-.079-.557a4.84,4.84,0,0,1-.246-.434,4.752,4.752,0,0,1-.193-.462c-.053-.161-.217-.29-.253-.457a5.032,5.032,0,0,1-.061-.51,4.961,4.961,0,0,1-.006-.512c0-.173-.142-.357-.124-.526s.287-.3.322-.468-.087-.376-.035-.537a5.175,5.175,0,0,1,.128-.509,5.032,5.032,0,0,1,.224-.477,5.2,5.2,0,0,1,.321-.417c.1-.138.4-.113.513-.239s.153-.317.279-.431.167-.342.305-.442.345-.106.493-.191a4.931,4.931,0,0,1,.486-.167c.155-.069.251-.3.414-.356s.373.067.541.031.311-.234.482-.252.351.016.523.016c.243,0,.243.1.486.1s.244-.01.488-.01.244-.023.487-.023a4.868,4.868,0,0,1,.5.116c.171.018.357-.078.523-.042s.306.177.467.23a4.717,4.717,0,0,1,.488.147,5.068,5.068,0,0,1,.494.161c.148.086.23.274.367.374a4.972,4.972,0,0,1,.38.334,5,5,0,0,1,.38.335c.114.127.359.154.46.292s.05.38.135.528.265.248.335.4a5.016,5.016,0,0,1,.223.472c.052.161-.009.36.027.528s.182.322.2.492-.193.351-.193.524.209.355.191.523-.2.319-.24.484.024.362-.028.523a3.065,3.065,0,0,1-.5.9c-.086.148-.063.372-.163.509s-.343.165-.458.291-.1.391-.224.505-.331.147-.469.247-.349.084-.5.17-.224.308-.38.377-.384-.06-.547-.007a4.57,4.57,0,0,1-.474.156c-.166.035-.306.226-.477.244s-.345-.077-.518-.077" transform="translate(0 -3.13)" fill="#7f4112"/>
        <path id="Path_342" data-name="Path 342" d="M443,17.675c.174,0,.347.059.518.045s.344-.041.514-.068.341-.061.508-.1.36-.013.523-.069.3-.2.456-.266.292-.185.444-.268.35-.089.494-.184.325-.151.462-.257.114-.4.24-.515.387-.1.5-.225.28-.225.387-.362.151-.326.246-.471.246-.263.328-.416.045-.368.115-.526.142-.314.2-.479.176-.311.218-.48.006-.354.035-.525.049-.341.064-.515.041-.344.041-.518.033-.353.019-.523-.132-.335-.161-.5,0-.353-.047-.52-.128-.324-.184-.487-.044-.357-.113-.515-.253-.263-.334-.414-.124-.328-.218-.472-.126-.34-.232-.477-.248-.252-.365-.379-.285-.207-.413-.324-.3-.176-.436-.283-.2-.31-.348-.4-.327-.13-.479-.213-.348-.065-.506-.134-.3-.17-.46-.226-.3-.216-.464-.258-.357.021-.528-.008-.345.045-.518.031-.333-.229-.507-.229c-.253,0-.253.176-.507.176s-.253-.234-.506-.234-.253.263-.506.263-.253-.23-.505-.23-.253.008-.505.008-.253-.005-.506-.005-.253.2-.506.2-.254.009-.507.009-.253-.108-.506-.108-.253.1-.506.1-.253-.076-.506-.076-.253-.145-.507-.145-.253.1-.507.1-.253.1-.506.1-.253-.17-.505-.17-.254.227-.508.227-.253-.167-.505-.167-.253.016-.505.016-.253.156-.505.156-.254-.14-.508-.14-.253-.118-.507-.118-.253.194-.506.194-.254-.121-.509-.121-.254-.041-.508-.041-.254.092-.508.092-.253-.027-.506-.027-.254-.071-.509-.071-.255-.065-.51-.065-.256.259-.511.259-.3.084-.547.012c-.055-.165-.16-.415-.228-.573s-.12-.321-.2-.473-.173-.294-.268-.44-.164-.3-.27-.441-.208-.275-.325-.4-.29-.193-.417-.311-.174-.324-.311-.431-.224-.292-.368-.388-.339-.122-.492-.2-.336-.1-.494-.174-.355-.027-.519-.084-.274-.277-.443-.32-.328-.154-.5-.184-.373.194-.546.179-.336-.01-.51-.01-.354-.187-.525-.173-.341.1-.511.126-.351.028-.518.071-.34.09-.5.147-.35.076-.508.145-.221.334-.373.417-.285.179-.429.274-.305.154-.442.261-.27.208-.4.326-.237.244-.354.372-.333.172-.438.31-.26.249-.354.394-.067.367-.15.52-.255.265-.323.424-.019.452-.075.617c-.243.071-.281-.234-.534-.234s-.253.022-.506.022-.253.015-.507.015-.253.127-.507.127-.253-.019-.507-.019-.253-.02-.506-.02-.254.151-.507.151-.254-.247-.507-.247-.254.173-.508.173-.253.064-.507.064-.253.018-.506.018-.254-.041-.508-.041-.253-.248-.506-.248-.253.108-.505.108-.253.151-.506.151-.254-.109-.509-.109-.253-.072-.507-.072-.254.183-.507.183-.254-.17-.509-.17-.254.174-.508.174-.254-.044-.508-.044-.254-.1-.507-.1-.255.01-.509.01-.255.023-.51.023-.256-.09-.512-.09-.277.193-.523.122c-.056-.165-.05-.389-.119-.548s-.18-.3-.262-.455-.24-.259-.334-.4-.1-.353-.207-.49-.206-.287-.322-.414-.265-.233-.392-.35-.369-.1-.505-.2-.171-.348-.316-.443-.35-.087-.5-.17-.317-.122-.476-.193-.274-.235-.439-.292-.359.011-.528-.032-.29-.293-.462-.322-.368.167-.542.152-.335-.182-.51-.182V1c-.175,0-.345-.022-.517-.008s-.354-.026-.523,0-.31.2-.476.245-.382-.073-.545-.016-.25.3-.408.374-.353.051-.505.134-.37.063-.514.159-.191.33-.326.437-.4.067-.529.185-.236.267-.353.4-.1.369-.207.506-.205.273-.3.419-.172.294-.254.447-.085.334-.154.493-.234.357-.289.522a1.354,1.354,0,0,1-.534.055c-.252,0-.252-.294-.5-.294s-.252.1-.5.1-.252.1-.5.1-.252.04-.5.04-.253-.012-.5-.012-.253-.062-.505-.062-.253.06-.506.06-.253.009-.505.009-.253-.084-.505-.084-.253.071-.5.071-.253-.062-.506-.062-.253.057-.506.057-.253-.165-.505-.165-.252.124-.5.124-.253.038-.506.038-.252-.075-.5-.075-.251,0-.5,0-.253-.1-.5-.1-.253,0-.507,0-.253.23-.505.23-.253-.232-.506-.232-.254.117-.508.117-.253-.025-.506-.025-.253.158-.506.158-.253-.169-.505-.169-.254.171-.508.171-.254-.018-.509-.018-.255-.248-.511-.248-.255.163-.51.163c-.174,0-.343.025-.514.039s-.374-.166-.543-.138-.329.162-.5.2-.335.1-.5.159-.36.047-.518.116-.338.124-.489.205-.224.311-.368.406-.2.3-.34.406-.431.024-.559.141-.094.395-.211.522-.3.194-.4.331-.12.333-.215.477-.225.259-.308.411-.3.238-.371.4-.111.334-.167.5.07.379.027.547-.171.311-.2.482-.116.334-.131.508-.048.348-.048.523,0,.354.017.525.033.353.061.522.055.351.1.518.19.309.245.472.015.371.085.529.209.29.291.442.332.2.426.345.136.317.242.453.152.32.269.448.239.25.366.367.311.164.447.27.179.344.324.439.271.239.423.322.423-.077.582-.007.267.256.431.312.318.155.486.2.34.089.512.118.344.1.518.112.354-.085.529-.085c.253,0,.253-.075.506-.075s.253.17.505.17.252-.162.5-.162.252-.048.5-.048.252-.023.5-.023.252.044.5.044.253.053.505.053.253-.035.506-.035.253.08.505.08.253.111.5.111.253-.254.505-.254.253-.008.506-.008.253.236.506.236.253-.239.505-.239.253.24.5.24.253-.257.506-.257.252.294.5.294.252-.182.5-.182.252.17.5.17.253-.27.506-.27.253.174.506.174.253-.144.506-.144.254.219.508.219.253-.051.506-.051.253.039.506.039.253-.13.506-.13.254.025.508.025.254-.1.509-.1.255.147.51.147.288-.208.535-.142c.05.148.167.35.227.493s-.038.363.034.5.31.183.391.316.063.234.154.361a.944.944,0,0,1-.455.035c-.24,0-.24-.031-.48-.031s-.24.221-.479.221-.24-.22-.482-.22-.241.02-.482.02-.242.155-.483.155-.242-.1-.483-.1c-.174,0-.351-.037-.522-.023s-.346.054-.515.082-.354.021-.52.063-.344.08-.507.136-.359.059-.517.128-.239.31-.391.393-.369.061-.514.156-.181.343-.317.449-.407.058-.534.175-.216.284-.334.411-.165.317-.271.453-.094.35-.189.494-.336.2-.419.348-.117.328-.187.487-.241.28-.3.444.019.369-.023.537-.254.3-.282.476.048.361.033.535-.082.348-.082.523.031.355.045.526.22.322.248.492-.111.377-.069.543.127.33.183.492.064.354.133.511.208.291.29.443.181.3.275.443.123.346.229.482.242.261.359.388.24.262.367.379.311.178.447.284.256.245.4.34.345.1.5.184.3.176.457.246.359.018.523.074.29.217.459.259.348.006.519.035.328.151.5.165.347-.076.522-.076c.255,0,.255.181.51.181s.255-.2.51-.2.254.23.509.23.255-.145.51-.145.256.073.511.073.256-.209.511-.209.256.134.511.134.255-.08.51-.08h.511c.256,0,.256.009.511.009s.256-.031.511-.031.256-.025.511-.025.255.145.51.145.256-.028.512-.028.255.067.51.067.254-.061.509-.061.255.008.51.008.256.041.512.041.256-.01.511-.01.256-.059.511-.059.257.1.513.1.256-.123.512-.123.256.09.512.09.256.027.511.027.257-.213.514-.213.257.019.515.019.258.023.515.023.346-.1.541.073c.169.147.022.253.022.477s.03.224.03.449.053.256-.117.4c-.2.17-.22.112-.48.112h-.519c-.26,0-.26-.083-.52-.083s-.26.1-.52.1-.26.067-.52.067-.259-.111-.518-.111-.26-.03-.521-.03-.259.119-.518.119-.259-.27-.518-.27-.259.014-.518.014-.261.061-.522.061-.26.075-.52.075-.26.017-.52.017-.261.124-.522.124-.26-.3-.521-.3-.26.228-.521.228-.26-.2-.52-.2-.261.246-.522.246-.262-.073-.523-.073-.262-.167-.525-.167-.262.139-.525.139c-.171,0-.337.112-.507.116s-.339-.02-.508-.011-.347-.1-.517-.089-.323.189-.491.207-.336.035-.5.057-.349-.047-.517-.019-.32.132-.488.164-.329.075-.5.111-.386-.156-.551-.115-.3.208-.463.254-.337.065-.5.114-.344.047-.505.1-.283.222-.443.28-.3.163-.458.227-.335.077-.491.144-.288.187-.442.258-.359.038-.511.114-.35.068-.5.148-.2.353-.343.437-.28.189-.426.277-.306.148-.449.239-.331.115-.471.211-.288.183-.426.282-.278.2-.414.3-.315.152-.448.259-.23.259-.36.369-.32.155-.446.268-.114.379-.238.5-.277.2-.4.321-.176.3-.293.425-.36.13-.473.257-.1.36-.215.49-.3.19-.408.323-.311.191-.414.326-.17.3-.27.439-.1.35-.191.49-.186.283-.278.427-.287.222-.375.368.013.4-.071.549-.217.265-.3.416-.253.252-.329.4-.158.3-.23.457.018.379-.05.535-.337.228-.4.386-.136.315-.2.475-.058.342-.113.5,0,.356-.053.519-.094.325-.139.489-.16.309-.2.474.072.364.035.531-.152.313-.184.48-.233.3-.261.473-.048.339-.071.508-.045.34-.064.509.182.359.168.529-.181.328-.19.5.055.343.05.514-.074.34-.074.511.053.348.067.519.013.35.041.519-.036.368.005.535.133.331.19.494.2.3.271.455.145.314.228.466.113.339.208.483.295.215.4.351.27.215.387.342.182.3.309.414.155.356.291.462.379.069.523.164.214.317.367.4.394-.02.552.05.23.366.394.423.369,0,.537.039.328.143.5.171.361-.09.534-.076.34.171.515.171.356,0,.528-.019.356-.027.525-.055.334-.134.5-.176.286-.244.449-.3.346-.05.5-.119.315-.138.466-.22.253-.241.4-.336.408-.023.545-.129.2-.3.327-.422.162-.319.279-.446.21-.26.317-.4.231-.247.326-.391.209-.268.292-.421.15-.3.22-.462.216-.283.272-.447.042-.346.084-.514.118-.325.146-.5.127-.334.141-.508-.076-.35-.076-.524-.109-.371-.094-.548.3-.325.326-.5.026-.353.071-.524-.081-.4-.022-.569.3-.267.372-.428.051-.374.138-.529.153-.332.253-.479.207-.3.319-.439.229-.285.353-.413.423-.071.557-.189.076-.3.22-.409c.085.245-.024.225-.024.484s.05.26.05.519.158.26.158.521.012.26.012.52-.23.26-.23.52.225.259.225.519-.1.261-.1.522.125.261.125.522-.106.262-.106.523,0,.262,0,.524c0,.174.022.346.036.517s.1.333.128.5.075.331.117.5.119.317.175.48-.033.381.036.538.3.233.385.384.033.378.127.523.163.313.27.449.2.29.319.417.219.282.346.4.422.037.558.144.185.327.331.422.362.059.514.142.231.306.39.376.319.144.483.2.351.036.52.079.32.164.492.193.361-.113.534-.1.337-.041.511-.041.34.047.511.033.351.042.52.013.371.061.538.018.333-.124.5-.179.274-.253.432-.322.357-.055.509-.137.247-.26.391-.355.41-.027.546-.133.154-.36.281-.477.179-.3.3-.426.377-.13.483-.267.1-.351.2-.5.261-.245.343-.4.12-.326.19-.485.188-.3.244-.463.192-.311.234-.479-.131-.381-.1-.553.25-.318.264-.492-.132-.354-.132-.528c0-.247.121-.247.121-.493s-.092-.247-.092-.494.124-.248.124-.5-.041-.247-.041-.495-.225-.248-.225-.495.152-.248.152-.5.02-.248.02-.5-.057-.248-.057-.5.121-.247.121-.494.057-.249.057-.5-.019-.25-.019-.5-.014-.25-.014-.5-.3-.328-.115-.5.265.143.531.143.265-.1.531-.1.267-.147.533-.147.257.01.448.2.061.17.061.427.053.257.053.514.007.258.007.515-.127.258-.127.516.2.257.2.515-.094.257-.094.515-.156.257-.156.515.1.258.1.516.129.257.129.515-.118.258-.118.515.043.257.043.514.049.258.049.516-.046.257-.046.514.061.257.061.514-.053.257-.053.514.09.259.09.517-.111.257-.111.515.027.257.027.515.11.259.11.517-.261.259-.261.517.042.258.042.516-.013.257-.013.515.221.259.221.518-.236.259-.236.519.087.26.087.52.156.3-.027.482-.221.078-.48.078-.26-.119-.52-.119-.26.151-.52.151-.26.036-.52.036-.26-.132-.52-.132-.259.159-.519.159h-.52c-.259,0-.259-.1-.518-.1s-.259-.122-.519-.122-.259.027-.519.027-.26-.025-.521-.025-.26.2-.52.2-.26-.038-.52-.038-.261.015-.522.015-.26-.138-.521-.138-.26.09-.52.09-.26-.124-.52-.124-.262.119-.523.119-.262.024-.523.024-.262-.11-.525-.11-.263-.017-.525-.017c-.17,0-.334.207-.5.212s-.348-.191-.517-.18-.326.167-.494.184-.345-.035-.512-.011-.336.044-.5.075-.362-.067-.527-.032-.273.32-.437.362-.338.036-.5.084-.38-.076-.54-.022-.3.177-.459.236-.275.225-.431.29-.388-.038-.541.033-.2.365-.351.441-.375.012-.523.093-.283.188-.429.274-.3.155-.445.247-.287.183-.426.279-.251.233-.386.334-.334.125-.466.232-.273.207-.4.317-.108.386-.232.5-.319.154-.439.274-.241.238-.357.362-.237.243-.348.371-.208.268-.314.4-.261.228-.362.363-.222.261-.319.4-.22.265-.311.408-.113.331-.2.477-.088.339-.17.488-.131.31-.208.462-.245.257-.316.411-.224.274-.289.43-.075.337-.134.5.071.382.017.543-.133.308-.181.471-.063.329-.1.493-.3.277-.332.442.148.374.119.54-.173.312-.2.48-.174.321-.192.489.138.353.126.522-.1.333-.1.5-.1.339-.1.509.244.335.25.5-.124.345-.113.513.066.335.084.5.043.336.067.5-.088.359-.058.525.3.287.335.451-.071.363-.03.527.194.3.242.459-.117.393-.064.553.27.266.329.424.187.288.251.444.012.363.082.516.072.344.148.495.234.262.316.411.185.285.271.43.216.263.308.405.068.363.165.5.159.308.261.443.424.1.531.23.005.437.116.565.276.212.391.336.334.148.454.268.129.354.253.469.4.061.527.172.1.4.234.51.3.175.432.276.4.028.535.124.206.294.348.386.3.163.441.25.233.274.382.356.306.151.457.227.31.142.464.213.338.072.494.137.333.073.491.132.317.11.477.164.293.191.456.239.323.1.487.145.351-.021.517.015.3.229.466.259.356-.087.525-.062.311.245.48.263.357-.188.526-.176.334.049.5.055.336.048.506.048c.257,0,.257-.1.515-.1s.257.138.514.138.257-.067.514-.067.257.039.514.039.257.062.514.062.257-.1.514-.1.257-.086.514-.086.257.053.515.053.257.009.514.009.258.081.515.081.257.123.516.123.257-.19.515-.19.257.034.514.034.257.158.514.158.257-.2.513-.2.257.116.513.116.256-.022.513-.022.256-.01.512-.01.256-.04.512-.04.256.127.512.127.256-.211.512-.211.256.219.512.219.257-.117.513-.117.256-.059.513-.059.257.019.514.019.257.13.514.13.257-.2.515-.2.258.209.516.209.258-.147.516-.147.257.118.516.118.257-.108.515-.108.257.167.514.167.257,0,.514,0,.257-.124.514-.124.257.088.514.088.257.031.515.031.257-.168.515-.168.258.054.516.054.259-.087.517-.087.258.079.516.079.257.136.516.136.257.013.515.013.258-.18.515-.18.258-.076.516-.076.258.119.516.119.259.039.517.039.258-.126.516-.126.258.01.516.01.258.1.516.1.259.03.517.03.259.055.517.055.259-.27.517-.27.258.122.515.122.259-.009.517-.009.258.075.515.075.257-.031.515-.031.258,0,.516,0,.259.111.518.111.259-.022.517-.022.259-.076.517-.076.259-.03.519-.03.259-.007.518-.007.259.053.517.053.258-.071.516-.071.26.073.52.073.26-.043.52-.043.261.074.522.074.26-.143.521-.143c.17,0,.335-.055.5-.061s.34.065.509.054.341.012.509-.006.331-.078.5-.1.364.119.531.088.307-.206.472-.242.337-.048.5-.09.354,0,.515-.047.262-.3.422-.352.386.075.544.016.247-.3.4-.362.4.07.554,0,.2-.358.355-.434.348-.06.5-.142.335-.1.48-.185.31-.147.452-.239.244-.248.383-.345.268-.208.4-.31.172-.326.3-.432.379-.072.507-.183.144-.344.268-.46.233-.239.353-.359.322-.156.437-.28.212-.263.323-.391.346-.154.453-.285.173-.3.275-.434.1-.345.2-.485.305-.2.4-.346.064-.36.15-.505.075-.343.156-.491.306-.218.383-.369.092-.33.162-.484.169-.294.234-.45.167-.3.226-.457.154-.306.208-.466-.084-.38-.036-.542.1-.319.143-.483.076-.325.113-.491.114-.318.145-.485.228-.306.251-.474-.061-.35-.044-.519-.057-.343-.045-.512.071-.332.077-.5.156-.336.156-.506-.079-.34-.084-.509-.04-.339-.052-.507-.162-.323-.18-.491,0-.339-.02-.506.005-.342-.024-.508-.158-.311-.194-.476-.05-.332-.092-.5.088-.375.04-.537-.061-.34-.114-.5-.314-.248-.373-.406-.118-.314-.183-.47-.108-.319-.179-.472-.062-.345-.138-.5-.051-.359-.132-.507-.194-.284-.281-.429-.2-.28-.288-.422-.154-.309-.25-.448-.211-.271-.312-.406-.387-.127-.494-.259-.233-.239-.344-.367-.182-.286-.3-.41-.094-.379-.214-.5-.238-.246-.362-.361-.319-.154-.447-.265-.329-.13-.462-.236-.2-.295-.331-.4-.2-.3-.34-.4-.327-.125-.469-.217-.238-.263-.383-.35-.365-.047-.514-.128-.226-.3-.377-.379-.319-.127-.474-.2-.4.071-.556.006-.244-.3-.4-.36-.352-.022-.512-.075-.278-.251-.44-.3-.357.012-.521-.03-.342-.024-.507-.059-.336-.033-.5-.063-.325-.1-.492-.121-.339,0-.507-.021-.332-.057-.5-.069-.334-.064-.5-.07-.338.082-.508.082c-.251,0-.251-.044-.5-.044s-.251.091-.5.091-.251-.073-.5-.073-.251-.036-.5-.036-.251-.118-.5-.118-.251.179-.5.179-.251-.141-.5-.141-.251.148-.5.148-.251-.01-.5-.01-.25-.064-.5-.064-.25-.07-.5-.07-.251.182-.5.182-.251-.069-.5-.069-.251-.051-.5-.051-.251.062-.5.062-.252-.175-.5-.175-.252.193-.5.193-.251.005-.5.005-.251-.052-.5-.052-.253-.078-.5-.078-.253-.039-.506-.039-.253.031-.507.031-.234.121-.412-.059-.215-.164-.215-.421.056-.257.056-.514.182-.257.182-.515-.039-.258-.039-.515.039-.258.039-.515-.121-.257-.121-.515-.093-.257-.093-.515.09-.258.09-.515-.037-.258-.037-.516.055-.257.055-.515.13-.257.13-.515-.033-.258-.033-.516-.125-.257-.125-.514-.063-.257-.063-.514.083-.257.083-.514-.147-.259-.147-.517.263-.258.263-.515-.056-.258-.056-.516-.016-.259-.016-.517.088-.258.088-.517-.067-.258-.067-.516-.037-.257-.037-.515-.128-.259-.128-.518.114-.26.114-.519-.145-.26-.145-.52-.157-.44.028-.622.365.13.631.13.265-.024.531-.024.267.12.532.12.262-.223.457-.042.019.164.019.411.191.247.191.494-.208.248-.208.5-.005.248-.005.495.013.248.013.495-.051.248-.051.5-.031.248-.031.5.167.248.167.5-.028.247-.028.495-.029.248-.029.5-.107.249-.107.5.108.25.108.5.033.25.033.5c0,.174-.063.354-.049.525s.181.328.208.5.073.333.115.5-.032.369.024.532.179.3.248.462.183.293.265.445.225.26.319.4.058.38.164.517.247.247.364.374.313.17.44.287.118.4.255.5.389.052.534.147.239.27.391.352.356.053.514.122.276.236.44.292.3.219.471.261.36,0,.532.029.351,0,.525.011.344.147.519.147.336-.287.506-.3.371.194.541.166.294-.276.461-.319.37.044.532-.012.374-.01.531-.079.325-.15.476-.231.18-.376.324-.47.393-.044.529-.15.248-.249.375-.366.317-.181.435-.308.111-.364.217-.5.174-.3.269-.44.181-.288.263-.44.1-.328.167-.487.335-.237.391-.4.006-.361.048-.529.187-.316.215-.488,0-.353.013-.526.024-.348.024-.522c0-.251.1-.251.1-.5s-.193-.252-.193-.5-.06-.252-.06-.5.136-.252.136-.5.011-.251.011-.5-.013-.251-.013-.5,0-.253,0-.505-.144-.253-.144-.506.01-.254.01-.508a1.145,1.145,0,0,1,.058-.526c.137.105.226.346.354.462s.317.158.437.283.159.31.268.443.21.261.307.4.286.22.372.37.229.271.3.428.151.317.211.479.1.337.141.5.162.324.192.495-.019.357,0,.531-.106.348-.106.522.225.331.237.5-.2.364-.174.531.282.293.319.457-.024.353.027.514.016.358.079.515.084.345.159.5.258.254.346.4.251.24.35.377.15.312.26.441.166.316.288.434.36.107.492.215.274.188.414.284.227.269.376.353.3.153.457.224.282.217.443.274.312.171.478.214.373-.107.542-.079.337-.018.508,0,.329.184.5.184.339-.162.511-.176.353.061.522.033.34-.067.506-.109.3-.189.463-.245.384.037.542-.033.245-.283.4-.366.315-.136.459-.23.392-.051.528-.157.3-.2.423-.32.2-.3.315-.431.2-.289.305-.426.1-.346.2-.491.274-.234.356-.386.2-.291.266-.449-.006-.371.05-.535.174-.3.217-.471-.015-.349.014-.52.057-.331.071-.5.087-.335.087-.509.093-.342.088-.512.039-.345.03-.514-.091-.337-.1-.506-.046-.339-.064-.508-.06-.336-.082-.5.027-.349,0-.517-.044-.34-.076-.507-.231-.3-.267-.467-.105-.323-.147-.488.148-.391.1-.555-.3-.268-.35-.43-.026-.348-.081-.509-.228-.279-.287-.438-.01-.359-.073-.517-.187-.29-.254-.446-.147-.3-.218-.459-.093-.331-.169-.484-.095-.334-.174-.484-.121-.323-.205-.471-.261-.242-.349-.388-.219-.263-.311-.406-.047-.377-.143-.518-.246-.245-.345-.383-.207-.271-.31-.406-.142-.323-.249-.456-.22-.263-.33-.393-.24-.245-.354-.371-.306-.182-.423-.306-.3-.184-.416-.3-.113-.371-.236-.488-.267-.215-.393-.329-.3-.17-.434-.28-.176-.322-.309-.429-.25-.239-.385-.342-.388-.05-.526-.149-.325-.124-.466-.219-.139-.406-.282-.5-.284-.194-.43-.282-.339-.1-.487-.183-.385,0-.535-.083-.218-.317-.371-.393-.382.012-.536-.06-.308-.135-.464-.2-.294-.17-.452-.233-.293-.181-.452-.24-.267-.268-.428-.322-.4.122-.56.073-.317-.116-.481-.162-.308-.161-.473-.2-.3-.224-.465-.26-.383.173-.55.141-.3-.259-.467-.287-.329-.114-.5-.137-.368.212-.538.194-.329-.114-.5-.128-.34.029-.511.02-.337-.007-.508-.012-.337-.018-.508-.018c-.252,0-.252-.227-.5-.227s-.253.165-.5.165-.253-.158-.505-.158-.253.012-.505.012-.253.176-.5.176-.252.055-.5.055-.253-.1-.506-.1-.252.067-.5.067-.252,0-.5,0-.252-.187-.5-.187-.253.23-.506.23-.253-.056-.505-.056-.253-.048-.505-.048-.253-.031-.507-.031-.253-.105-.506-.105-.253.047-.505.047-.253.191-.505.191-.253-.062-.507-.062-.254-.171-.508-.171-.255.051-.509.051-.316.228-.507.06c-.168-.147-.036-.221-.036-.445s.137-.225.137-.449-.273-.3-.1-.449c.191-.168.254.113.509.113s.254-.075.509-.075.255,0,.509,0,.254-.048.509-.048.254-.059.508-.059.255.079.509.079.255-.018.509-.018.255.1.51.1.254-.2.509-.2.254.085.508.085.255.041.51.041.254-.084.508-.084.254.176.508.176.254-.136.508-.136.256-.025.511-.025.255.168.51.168.254-.194.509-.194.256-.055.511-.055.255.216.511.216.255-.093.51-.093.254-.045.509-.045.256,0,.512,0,.256-.074.512-.074.257,0,.514,0,.257-.006.514-.006c.174,0,.346.118.517.1s.367.1.537.073.3-.263.468-.3.372.039.535-.017.342-.093.5-.162.329-.134.48-.217.17-.388.314-.483.31-.145.446-.251.394-.071.521-.188.08-.408.2-.535.388-.121.495-.257.127-.336.222-.481.254-.252.337-.4.186-.3.256-.459.088-.342.144-.506.11-.331.153-.5-.03-.357,0-.529.248-.319.263-.492.02-.355.02-.529-.283-.336-.3-.506.032-.345,0-.514.159-.391.117-.557-.116-.339-.172-.5-.221-.293-.29-.451-.253-.258-.335-.41-.031-.383-.125-.527-.271-.233-.377-.369-.246-.24-.363-.367-.1-.392-.228-.509-.262-.244-.4-.35-.307-.183-.451-.278-.3-.182-.456-.264-.336-.112-.494-.182-.293-.22-.457-.277-.4.13-.568.088-.295-.267-.466-.295-.359.082-.532.068-.34,0-.514,0c-.264,0-.264-.169-.528-.169s-.274.173-.528.1c.091-.127.221-.231.3-.364s-.006-.358.065-.5.388-.161.449-.3.007-.277.056-.425c.245-.065.236-.006.489-.006s.253-.015.506-.015.253-.108.506-.108.253-.068.505-.068.253.044.505.044.253-.049.506-.049.253,0,.506,0,.253.07.507.07.253.066.506.066.253.011.506.011.253-.146.506-.146.253.231.507.231.253-.19.506-.19.254.182.507.182.253-.166.505-.166.254-.024.508-.024.253.217.505.217.253,0,.5,0,.253-.1.506-.1.254.046.508.046.253-.116.507-.116.253.045.506.045.254-.092.509-.092.254.144.508.144.254.067.507.067.253-.131.506-.131.255.159.509.159.255-.14.51-.14.266.119.52.094.247-.171.5-.171m-52.986,55.8a1.745,1.745,0,0,1,.149-.519,1.679,1.679,0,0,1,.234-.471,1.705,1.705,0,0,1,.374-.369,1.687,1.687,0,0,1,.494-.161,1.632,1.632,0,0,1,.494-.16c.26,0,.26-.045.52-.045s.259.1.519.1.26.059.52.059.26-.237.52-.237.26.2.52.2.26.062.519.062.26-.074.52-.074.26.069.519.069.259-.128.518-.128.26.011.519.011.26.072.522.072.26-.074.52-.074h.52c.261,0,.261.021.522.021s.26.041.521.041.26-.1.521-.1.26.06.52.06.261-.038.522-.038.262.082.523.082.262-.118.525-.118.327-.123.521.053c.177.16-.09.234-.09.472s.033.238.033.477.063.237.063.475.066.239.066.478-.127.239-.127.479.063.24.063.48.244.394.068.557-.331-.015-.591-.015-.26-.116-.52-.116-.26.1-.52.1-.26.094-.52.094-.26-.208-.52-.208-.259.176-.519.176-.26-.234-.52-.234-.259.263-.518.263-.259-.23-.519-.23-.259.008-.519.008-.26-.006-.521-.006-.26.2-.52.2-.26.009-.52.009-.261-.108-.522-.108-.26.1-.521.1-.26-.076-.52-.076-.26-.145-.52-.145-.262.1-.523.1-.262.1-.523.1-.262-.171-.525-.171-.263.227-.525.227c-.18,0-.346-.194-.508-.247a1.631,1.631,0,0,1-.468-.221c-.142-.1-.391-.134-.494-.276s-.072-.382-.127-.55a1.763,1.763,0,0,1-.148-.519m36.794-1.746a1.761,1.761,0,0,1,.519.148,1.266,1.266,0,0,1,1,1.1,1.631,1.631,0,0,1,.16.494,1.78,1.78,0,0,1-.039.533c-.055.168-.221.283-.323.424a1.576,1.576,0,0,1-.4.313c-.141.1-.2.394-.364.449s-.378-.11-.559-.11c-.251,0-.251-.061-.5-.061s-.251.073-.5.073-.251-.068-.5-.068-.251.128-.5.128-.251-.011-.5-.011-.251-.072-.5-.072-.251.074-.5.074h-.5c-.251,0-.251-.021-.5-.021s-.25-.041-.5-.041-.25.1-.5.1-.251-.06-.5-.06-.251.038-.5.038-.251-.082-.5-.082-.251.119-.5.119-.252-.055-.5-.055-.252-.088-.5-.088-.251.033-.5.033-.251.063-.5.063-.253.066-.5.066-.253-.127-.506-.127-.253.062-.507.062-.394.247-.578.073.01-.315.01-.553.115-.238.115-.476-.1-.238-.1-.475-.094-.239-.094-.478.208-.239.208-.479-.176-.24-.176-.48.022-.225.2-.39.165-.229.417-.229.251.23.5.23.251-.009.5-.009.251.006.5.006.251-.2.5-.2.251-.01.5-.01.251.108.5.108.25-.1.5-.1.251.076.5.076.251.145.5.145.25-.1.5-.1.25-.1.5-.1.252.171.5.171.251-.227.5-.227.251.167.5.167.252-.017.5-.017.251-.156.5-.156.252.139.5.139.251.118.5.118.252-.194.5-.194.253.121.505.121a3.7,3.7,0,0,0,.514.041c.256-.025.246-.151.5-.151M401.866,19.474c.091-.127.193-.33.275-.462s.153-.27.225-.409.141-.277.2-.42.143-.214.193-.362a1.249,1.249,0,0,1,.486-.079c.253,0,.253-.045.506-.045s.254.1.507.1.254.059.508.059.253-.237.506-.237.253.2.506.2.253.062.506.062.254-.074.508-.074.254.069.507.069.254-.128.507-.128.253.011.506.011.254.073.508.073.253-.075.506-.075h.505c.253,0,.253.021.506.021s.254.041.508.041.254-.1.507-.1.254.061.508.061.254-.038.509-.038.254.082.508.082.254-.118.508-.118.253.055.506.055.255.088.509.088.256-.033.511-.033.256-.062.512-.062.282-.129.529-.064c.05.148.033.383.094.526s.185.26.257.4.236.221.317.353.1.377.188.5c-.246.073-.274-.113-.531-.113s-.256.1-.512.1-.256.094-.512.094-.256-.208-.512-.208-.257.176-.513.176-.257-.234-.514-.234-.257.263-.514.263-.257-.23-.514-.23-.256.008-.513.008-.256-.005-.513-.005-.257.2-.514.2-.257.009-.514.009-.257-.108-.514-.108-.256.1-.512.1-.257-.076-.514-.076-.256-.145-.512-.145-.256.1-.512.1-.256.1-.513.1-.257-.17-.515-.17-.257.227-.514.227-.257-.167-.514-.167-.257.016-.515.016-.257.156-.515.156-.257-.14-.514-.14-.257-.118-.513-.118-.258.194-.517.194-.258-.121-.517-.121-.277-.086-.532-.041c-.273.048-.277.221-.525.148" transform="translate(-145.629 -0.352)" fill="#7f4112"/>
        <path id="Path_343" data-name="Path 343" d="M162.917,188.5c-.042,0-1.2,1.522-1.2,1.522s-2.74-3.091-4.567-3.091a4.293,4.293,0,0,0-3.238,1.937l.166,1.154.582.784,2.657,1.845.955,1.107,1.37,1.015.581.831.913,1.153.747,2.306.664,1.892a5.175,5.175,0,0,1,.291,1.753c0,3.783-3.945,7.151-7.141,7.151a16.636,16.636,0,0,1-3.986-.554l-1.951-.6-.706-.692c-.457-.322-2.035-1.476-2.035-3,0-2.076.83-2.952,1.868-2.952.748,0,1.412,2.168,5.979,2.168a2.91,2.91,0,0,0,3.114-2.906,3.189,3.189,0,0,0-.25-1.061l-.706-.646-.955-1.522-1.245-.646c-2.284-1.291-5.522-4.751-5.522-8.119a7.628,7.628,0,0,1,2.2-5.212l1.826-.969,1-.6a13,13,0,0,1,2.159-.277c4.567,0,7.556,2.122,7.556,4.89,0,.277-.747.969-1.121,1.338" transform="translate(-57.965 -71.867)" fill="#7f4112"/>
        <path id="Path_344" data-name="Path 344" d="M162.917,188.5c-.042,0-1.2,1.522-1.2,1.522s-2.74-3.091-4.567-3.091a4.293,4.293,0,0,0-3.238,1.937l.166,1.154.582.784,2.657,1.845.955,1.107,1.37,1.015.581.831.913,1.153.747,2.306.664,1.892a5.175,5.175,0,0,1,.291,1.753c0,3.783-3.945,7.151-7.141,7.151a16.636,16.636,0,0,1-3.986-.554l-1.951-.6-.706-.692c-.457-.322-2.035-1.476-2.035-3,0-2.076.83-2.952,1.868-2.952.748,0,1.412,2.168,5.979,2.168a2.91,2.91,0,0,0,3.114-2.906,3.189,3.189,0,0,0-.25-1.061l-.706-.646-.955-1.522-1.245-.646c-2.284-1.291-5.522-4.751-5.522-8.119a7.628,7.628,0,0,1,2.2-5.212l1.826-.969,1-.6a13,13,0,0,1,2.159-.277c4.567,0,7.556,2.122,7.556,4.89C164.038,187.443,163.291,188.135,162.917,188.5Z" transform="translate(-57.965 -71.867)" fill="none" stroke="#7f4112" stroke-width="0.25"/>
        <path id="Path_345" data-name="Path 345" d="M202.122,217.59a12.383,12.383,0,0,1-6.435-1.938l-1.245-.6-1.2-2.215a7.641,7.641,0,0,1-1.121-4.428c0-3.644,4.069-9.226,8.428-9.226.166,0,.332.046.5.046l1.744.185.913.738,1.536.692.664.969s4.193,4.2,4.193,6.873c0,3.921-5.73,8.9-7.971,8.9m3.446-10.518-.332-.692-.872-.462-1.2-1.522-1.619-.277-1.37-.6s-4.276.784-4.276,5.028c0,2.353,3.612,4.152,5.6,4.152,1.328,0,4.359-1.476,4.359-3.553,0-.092-.042-.231-.042-.323Z" transform="translate(-75.747 -78.533)" fill="#7f4112"/>
        <path id="Path_346" data-name="Path 346" d="M202.122,217.59a12.383,12.383,0,0,1-6.435-1.938l-1.245-.6-1.2-2.215a7.641,7.641,0,0,1-1.121-4.428c0-3.644,4.069-9.226,8.428-9.226.166,0,.332.046.5.046l1.744.185.913.738,1.536.692.664.969s4.193,4.2,4.193,6.873C210.094,212.607,204.364,217.59,202.122,217.59Zm3.446-10.518-.332-.692-.872-.462-1.2-1.522-1.619-.277-1.37-.6s-4.276.784-4.276,5.028c0,2.353,3.612,4.152,5.6,4.152,1.328,0,4.359-1.476,4.359-3.553,0-.092-.042-.231-.042-.323Z" transform="translate(-75.747 -78.533)" fill="none" stroke="#7f4112" stroke-width="0.25"/>
        <path id="Path_347" data-name="Path 347" d="M253.893,207.848l.041.923v.185c0,.969-.706,1.476-1.66,3.875a23.815,23.815,0,0,1-2.076,3.783l-1.245.83-1.329,1.061h-1.411c-3.279,0-7.556-5.12-7.556-10.1v-.231l.041-1.936v-1.569l.374-.784a2.407,2.407,0,0,1,2.284-2.261,1.671,1.671,0,0,1,1.868,1.707l-.124,5.951a3.186,3.186,0,0,0,.872,2.215l.5.462.54.877a1.269,1.269,0,0,0,1.162.6c1.37,0,1.662-2.03,1.662-2.03l1.245-1.337.5-1.754.042-3.875c0-.415,1-2.4,2.2-2.4.082,0,.166.046.249.046.789.138.913.738,1.411,1.338a10.915,10.915,0,0,1,.664,1.107l.166,1.707Z" transform="translate(-94.096 -79.493)" fill="#7f4112"/>
        <path id="Path_348" data-name="Path 348" d="M253.893,207.848l.041.923v.185c0,.969-.706,1.476-1.66,3.875a23.815,23.815,0,0,1-2.076,3.783l-1.245.83-1.329,1.061h-1.411c-3.279,0-7.556-5.12-7.556-10.1v-.231l.041-1.936v-1.569l.374-.784a2.407,2.407,0,0,1,2.284-2.261,1.671,1.671,0,0,1,1.868,1.707l-.124,5.951a3.186,3.186,0,0,0,.872,2.215l.5.462.54.877a1.269,1.269,0,0,0,1.162.6c1.37,0,1.662-2.03,1.662-2.03l1.245-1.337.5-1.754.042-3.875c0-.415,1-2.4,2.2-2.4.082,0,.166.046.249.046.789.138.913.738,1.411,1.338a10.915,10.915,0,0,1,.664,1.107l.166,1.707Z" transform="translate(-94.096 -79.493)" fill="none" stroke="#7f4112" stroke-width="0.25"/>
        <path id="Path_349" data-name="Path 349" d="M305.9,183.368l.083,1.707-.5,7.381-.125.876a6.92,6.92,0,0,0-.041.969c0,1.43.208,3.322.208,3.322l-.042,1.707-.249,1.568.333,3.414-.291,2.261.041,1.291c0,4.475-1.619,5.213-2.74,5.213a3.062,3.062,0,0,1-1.038-.185l-1.287-1.383.166-2.353.415-1.615v-4.475l.333-1.568-.042-3.553-.208-2.075.166-1.43v-1.291l.207-1.754-.5-1.937c-.208-.83-1.993-1.846-2.616-1.846-2.325,0-4.069,2.261-4.069,5.259v.323l.082,2.445.167,1.338.457.369,1.287-.277h.208a1.75,1.75,0,0,1,1.661,1.662c0,.092-.041.184-.041.276l-.084,2.03-1.869.969-1.577.323a1.383,1.383,0,0,0-.914,1.061,22.231,22.231,0,0,0-.165,2.952c0,4.106-1.37,7.519-3.114,7.519-1.245,0-1.992-1.477-1.992-2.953a2.507,2.507,0,0,1,.041-.554l.207-2.768.084-1.383.331-.969.167-1.43v-.139c0-.461-.167-.876-.5-.876h-1.37c-.5,0-1.495-.231-2.284-.231-.664,0-1.2.185-1.2.738l-.041,1.2.207,1.568-.539,2.307-.042,1.384c0,1.015-1.329,3-2.035,3a2.837,2.837,0,0,1-2.864-3.045,14.037,14.037,0,0,1,.54-2.583c.208-1.061.166-1.569.457-2.676a5.893,5.893,0,0,0,.373-1.476.7.7,0,0,0-.207-.508c-.83-.738-2.616-.322-2.823-1.66a5.751,5.751,0,0,1-.084-.784c0-1.706,1.163-2.076,2.616-2.537.291-.092.5-.092.623-.461l.249-.876.083-1.292,1.08-2.353.29-1.338c.955-3.92,3.57-5.351,6.186-5.351a6.032,6.032,0,0,1,1.827.184l1.577.369.581-.139,1.578-1.522c1.038-1.015,5.438-1.8,5.438-1.8l1.453.508a1.834,1.834,0,0,0,.872.323c.25,0,.457-.093.54-.508l.084-.554.373-.923.291-.969a2.369,2.369,0,0,1,1.993-1.707,1.768,1.768,0,0,1,1.7,1.845v.231Zm-15.984,8.672c0-.923-2.034-1.568-2.74-1.568-1.951,0-2.782,5.813-2.782,6.227,0,.6.208,1.338,1.038,1.338h.208l3.653-.323.457-.784-.208-3,.374-1.292Z" transform="translate(-109.067 -70.606)" fill="#7f4112"/>
        <path id="Path_350" data-name="Path 350" d="M305.9,183.368l.083,1.707-.5,7.381-.125.876a6.92,6.92,0,0,0-.041.969c0,1.43.208,3.322.208,3.322l-.042,1.707-.249,1.568.333,3.414-.291,2.261.041,1.291c0,4.475-1.619,5.213-2.74,5.213a3.062,3.062,0,0,1-1.038-.185l-1.287-1.383.166-2.353.415-1.615v-4.475l.333-1.568-.042-3.553-.208-2.075.166-1.43v-1.291l.207-1.754-.5-1.937c-.208-.83-1.993-1.846-2.616-1.846-2.325,0-4.069,2.261-4.069,5.259v.323l.082,2.445.167,1.338.457.369,1.287-.277h.208a1.75,1.75,0,0,1,1.661,1.662c0,.092-.041.184-.041.276l-.084,2.03-1.869.969-1.577.323a1.383,1.383,0,0,0-.914,1.061,22.231,22.231,0,0,0-.165,2.952c0,4.106-1.37,7.519-3.114,7.519-1.245,0-1.992-1.477-1.992-2.953a2.507,2.507,0,0,1,.041-.554l.207-2.768.084-1.383.331-.969.167-1.43v-.139c0-.461-.167-.876-.5-.876h-1.37c-.5,0-1.495-.231-2.284-.231-.664,0-1.2.185-1.2.738l-.041,1.2.207,1.568-.539,2.307-.042,1.384c0,1.015-1.329,3-2.035,3a2.837,2.837,0,0,1-2.864-3.045,14.037,14.037,0,0,1,.54-2.583c.208-1.061.166-1.569.457-2.676a5.893,5.893,0,0,0,.373-1.476.7.7,0,0,0-.207-.508c-.83-.738-2.616-.322-2.823-1.66a5.751,5.751,0,0,1-.084-.784c0-1.706,1.163-2.076,2.616-2.537.291-.092.5-.092.623-.461l.249-.876.083-1.292,1.08-2.353.29-1.338c.955-3.92,3.57-5.351,6.186-5.351a6.032,6.032,0,0,1,1.827.184l1.577.369.581-.139,1.578-1.522c1.038-1.015,5.438-1.8,5.438-1.8l1.453.508a1.834,1.834,0,0,0,.872.323c.25,0,.457-.093.54-.508l.084-.554.373-.923.291-.969a2.369,2.369,0,0,1,1.993-1.707,1.768,1.768,0,0,1,1.7,1.845v.231Zm-15.984,8.672c0-.923-2.034-1.568-2.74-1.568-1.951,0-2.782,5.813-2.782,6.227,0,.6.208,1.338,1.038,1.338h.208l3.653-.323.457-.784-.208-3,.374-1.292Z" transform="translate(-109.067 -70.606)" fill="none" stroke="#7f4112" stroke-width="0.25"/>
        <path id="Path_351" data-name="Path 351" d="M355.585,202.965c-2.284,0-5.023-.876-6.767-.876-1.079,0-1.7.37-1.7.876a1.036,1.036,0,0,0,.167.462,13.842,13.842,0,0,0,3.986,3.322l1.121.323,1.37.138.706.738,1.038.738.166,2.4-.664.692-.457.738a6.163,6.163,0,0,1-1.411.461c-2.076,0-4.982-1.938-4.982-1.938l-1.66-1.107-.457-.877L343.71,206.1a8.279,8.279,0,0,1-.664-2.445,9.815,9.815,0,0,1,.333-2.122l.084-2.537a30.482,30.482,0,0,1,.581-3.136,25.427,25.427,0,0,1,3.487-3.6,8.495,8.495,0,0,1,2.242-1.061l1-.462,2.284-.231c3.653,0,6.02,3.137,6.02,8.488a3.807,3.807,0,0,1-3.487,3.967m-2.284-8.349a3.7,3.7,0,0,0-1.162.323l-1,.277-1.66-.046c-.748,0-1.163,1.015-1.163,1.753a1.2,1.2,0,0,0,.332.969,1.778,1.778,0,0,0,1.038.185h.83c.166,0,.332.046.457.046l1.328.184,1.453-.046c1.453-.045,1.536-.507,1.536-1.337,0-.876-.955-2.307-1.992-2.307m4.525-11.579-.374.646-.54,1.476-.54.923c-.789,1.2-1.287,1.661-2.325,1.661a6.359,6.359,0,0,1-1.2-.138,1.707,1.707,0,0,1-1.079-1.662,2.5,2.5,0,0,1,.29-1.153l.332-.646.291-.692,1-1.154.291-.784a2.832,2.832,0,0,1,2.117-1.522c.083,0,.166.046.249.046a5.857,5.857,0,0,1,1.661.969l.5,1.153Z" transform="translate(-135.254 -70.966)" fill="#7f4112"/>
        <path id="Path_352" data-name="Path 352" d="M355.585,202.965c-2.284,0-5.023-.876-6.767-.876-1.079,0-1.7.37-1.7.876a1.036,1.036,0,0,0,.167.462,13.842,13.842,0,0,0,3.986,3.322l1.121.323,1.37.138.706.738,1.038.738.166,2.4-.664.692-.457.738a6.163,6.163,0,0,1-1.411.461c-2.076,0-4.982-1.938-4.982-1.938l-1.66-1.107-.457-.877L343.71,206.1a8.279,8.279,0,0,1-.664-2.445,9.815,9.815,0,0,1,.333-2.122l.084-2.537a30.482,30.482,0,0,1,.581-3.136,25.427,25.427,0,0,1,3.487-3.6,8.495,8.495,0,0,1,2.242-1.061l1-.462,2.284-.231c3.653,0,6.02,3.137,6.02,8.488A3.807,3.807,0,0,1,355.585,202.965Zm-2.284-8.349a3.7,3.7,0,0,0-1.162.323l-1,.277-1.66-.046c-.748,0-1.163,1.015-1.163,1.753a1.2,1.2,0,0,0,.332.969,1.778,1.778,0,0,0,1.038.185h.83c.166,0,.332.046.457.046l1.328.184,1.453-.046c1.453-.045,1.536-.507,1.536-1.337C355.293,196.046,354.339,194.615,353.3,194.615Zm4.525-11.579-.374.646-.54,1.476-.54.923c-.789,1.2-1.287,1.661-2.325,1.661a6.359,6.359,0,0,1-1.2-.138,1.707,1.707,0,0,1-1.079-1.662,2.5,2.5,0,0,1,.29-1.153l.332-.646.291-.692,1-1.154.291-.784a2.832,2.832,0,0,1,2.117-1.522c.083,0,.166.046.249.046a5.857,5.857,0,0,1,1.661.969l.5,1.153Z" transform="translate(-135.254 -70.966)" fill="none" stroke="#7f4112" stroke-width="0.25"/>
      </g>
    </g>
  </g>
</svg>
