<svg xmlns="http://www.w3.org/2000/svg" width="21.5" height="25" viewBox="0 0 21.5 25">
  <path id="Icon_awesome-shopping-bag" data-name="Icon awesome-shopping-bag" d="M16.893,7.812V6.25A6.2,6.2,0,0,0,10.75,0,6.2,6.2,0,0,0,4.607,6.25V7.812H0V21.094A3.873,3.873,0,0,0,3.839,25H17.661A3.873,3.873,0,0,0,21.5,21.094V7.812ZM7.679,6.25a3.072,3.072,0,1,1,6.143,0V7.812H7.679Zm7.679,5.859a1.172,1.172,0,1,1,1.152-1.172A1.162,1.162,0,0,1,15.357,12.109Zm-9.214,0a1.172,1.172,0,1,1,1.152-1.172A1.162,1.162,0,0,1,6.143,12.109Z" fill="#b15921"/>
</svg>
